<?xml version="1.0" encoding="UTF-8" standalone="no"?>
<svg
   version="1.1"
   width="8.2352753in"
   height="8.5886564in"
   viewBox="0 0 592.941 618.38401"
   id="svg5"
   sodipodi:docname="odnovino.cdr"
   xmlns:inkscape="http://www.inkscape.org/namespaces/inkscape"
   xmlns:sodipodi="http://sodipodi.sourceforge.net/DTD/sodipodi-0.dtd"
   xmlns="http://www.w3.org/2000/svg"
   xmlns:svg="http://www.w3.org/2000/svg">
  <defs
     id="defs9" />
  <sodipodi:namedview
     id="namedview7"
     pagecolor="#ffffff"
     bordercolor="#000000"
     borderopacity="0.25"
     inkscape:showpageshadow="2"
     inkscape:pageopacity="0.0"
     inkscape:pagecheckerboard="0"
     inkscape:deskcolor="#d1d1d1"
     inkscape:document-units="in"
     showgrid="false" />
  <g
     id="Layer1000"
     transform="matrix(3.0782062,0,0,3.0782062,-743.59085,-148.47988)">
    <path
       d="m 390.6199,68.2096 c 4.9927,3.2735 9.663,6.9984 13.9529,11.1169 -0.528,0.148 -1.0486,0.3106 -1.5615,0.4869 -4.0141,-3.7902 -8.359,-7.2333 -12.986,-10.2829 z m -70.8326,22.0003 -0.012,-1e-4 -3.2657,-0.0242 c -0.2684,-0.0057 -0.7526,-0.0621 -0.9502,-0.0378 -0.1841,0.1632 -0.4299,0.5343 -0.739,0.5145 -0.4175,-0.0266 -0.6785,-1.165 -1.4743,-0.3432 -0.2207,0.2278 -0.2813,0.5021 -0.7037,0.4935 -0.3135,-0.2453 -0.3401,-0.9177 -1.0722,-0.77 -0.4809,0.0971 -0.5447,0.7039 -1.0282,0.7658 -0.3484,-0.2398 -0.3609,-0.9528 -0.993,-0.8072 -0.5291,0.1219 -0.6106,0.6503 -1.0596,0.8003 -0.357,-0.2554 -0.4763,-0.8491 -0.9415,-0.8188 -0.4768,0.0312 -0.6028,0.5324 -1.0307,0.6699 -0.8364,-0.2677 -0.1135,-1.0545 -1.7244,-0.771 0.0988,-0.2842 0.2912,-0.6023 0.6372,-0.6071 0.3712,-0.0051 0.4058,0.314 0.6481,0.4478 0.2579,0.1424 0.6892,0.0914 0.8819,-0.0626 0.1342,-0.107 0.28,-0.4396 0.4055,-0.6595 0.7123,8e-4 0.5052,0.7513 1.1346,0.8105 0.5756,0.0541 0.6683,-0.7069 0.985,-0.8213 0.4038,-0.1457 0.6358,0.6639 1.0568,0.7703 0.6392,0.1617 0.653,-0.5323 1.0714,-0.7735 0.5851,0.0503 0.458,0.3326 0.7841,0.6579 0.3528,0.3519 0.7347,0.143 0.927,-0.16 0.7446,-1.1734 0.7526,0.1855 1.6221,0.2085 0.3501,-0.1801 0.3562,-0.4577 0.7035,-0.5256 0.2509,-0.049 2.1877,-0.0354 4.1351,-0.0309 z m 41.112,-0.0849 0.012,-2e-4 3.2655,-0.0377 c 0.2684,-0.0067 0.7523,-0.0651 0.9501,-0.0417 0.1848,0.1625 0.4321,0.5325 0.7411,0.5115 0.4174,-0.0284 0.6736,-1.1678 1.4729,-0.3494 0.2216,0.2269 0.2833,0.501 0.7057,0.4906 0.3124,-0.2465 0.3363,-0.919 1.069,-0.7744 0.4813,0.0952 0.5476,0.7017 1.0313,0.7615 0.3475,-0.2412 0.357,-0.9542 0.9897,-0.8112 0.5296,0.1197 0.6133,0.6478 1.0629,0.7959 0.356,-0.2569 0.4728,-0.8511 0.9381,-0.8227 0.477,0.0292 0.605,0.5299 1.0335,0.6656 0.8352,-0.2711 0.1091,-1.0549 1.7211,-0.7781 -0.0999,-0.2838 -0.2937,-0.6011 -0.6396,-0.6044 -0.3712,-0.0036 -0.4045,0.3156 -0.6463,0.4504 -0.2572,0.1435 -0.6888,0.0943 -0.8821,-0.0589 -0.1346,-0.1065 -0.2818,-0.4385 -0.4083,-0.6578 -0.7123,0.0037 -0.502,0.7534 -1.1311,0.8151 -0.5754,0.0565 -0.6713,-0.7041 -0.9885,-0.8172 -0.4044,-0.144 -0.633,0.6665 -1.0536,0.7747 -0.6385,0.1643 -0.6552,-0.5296 -1.0746,-0.7691 -0.5848,0.0527 -0.4565,0.3345 -0.7813,0.6611 -0.3513,0.3534 -0.7342,0.1461 -0.9277,-0.1562 -0.7494,-1.1703 -0.7518,0.1887 -1.6212,0.2153 -0.3508,-0.1787 -0.3581,-0.4563 -0.7057,-0.5227 -0.2511,-0.048 -2.1878,-0.0264 -4.1351,-0.0138 z m -31.1907,-0.0112 c 0.002,0.7308 -0.0828,1.388 -0.253,1.974 -0.1725,0.586 -0.4286,1.0841 -0.7682,1.4967 -0.342,0.4101 -0.7698,0.7276 -1.286,0.9501 -0.5161,0.2225 -1.1182,0.3332 -1.8062,0.3347 -0.6785,0.0014 -1.2643,-0.0975 -1.7598,-0.2988 -0.498,-0.2013 -0.9057,-0.4956 -1.2303,-0.8806 -0.3245,-0.385 -0.566,-0.863 -0.7243,-1.4341 -0.1607,-0.571 -0.2406,-1.2279 -0.2421,-1.9706 -10e-4,-0.7118 0.0829,-1.3595 0.2531,-1.9407 0.1726,-0.5813 0.4287,-1.0746 0.773,-1.4824 0.342,-0.4054 0.7722,-0.7205 1.2884,-0.943 0.5137,-0.2224 1.1158,-0.3332 1.8062,-0.3346 0.6642,-0.0014 1.2428,0.0974 1.7361,0.2964 0.4932,0.1989 0.9056,0.4885 1.2325,0.8711 0.3294,0.3826 0.5755,0.8558 0.7362,1.4221 0.1607,0.5638 0.2429,1.2112 0.2444,1.9397 z m -1.271,0.0859 c -10e-4,-0.5094 -0.0473,-0.9855 -0.1387,-1.4233 -0.0913,-0.4379 -0.2421,-0.8184 -0.4546,-1.1417 -0.2126,-0.321 -0.494,-0.5728 -0.8467,-0.753 -0.3551,-0.1801 -0.791,-0.2697 -1.3099,-0.2686 -0.5214,10e-4 -0.9568,0.0995 -1.3088,0.2955 -0.3518,0.1959 -0.6394,0.456 -0.8577,0.7802 -0.2207,0.3266 -0.3771,0.7055 -0.4714,1.1413 -0.0943,0.4335 -0.141,0.8883 -0.1401,1.3668 0.001,0.5308 0.0474,1.0164 0.1364,1.4614 0.089,0.4473 0.2374,0.8303 0.4475,1.1537 0.2078,0.3209 0.4893,0.5703 0.8396,0.7481 0.3503,0.1778 0.7909,0.2674 1.3194,0.2663 0.5261,-0.0011 0.9663,-0.0996 1.323,-0.2955 0.3567,-0.196 0.6442,-0.4585 0.8626,-0.7922 0.2159,-0.3313 0.3722,-0.7173 0.4641,-1.1532 0.092,-0.4358 0.1363,-0.8978 0.1353,-1.3858 z m 13.2738,4.3268 c 0,0.0381 -0.01,0.0714 -0.0284,0.0976 -0.019,0.0286 -0.0523,0.0501 -0.0999,0.0669 -0.0475,0.0167 -0.1094,0.0312 -0.1832,0.0432 -0.0738,0.0121 -0.1713,0.017 -0.2904,0.0173 -0.1119,2e-4 -0.2071,-0.0043 -0.2857,-0.0161 -0.0786,-0.0117 -0.1405,-0.0259 -0.1858,-0.0424 -0.0452,-0.0166 -0.0786,-0.038 -0.0977,-0.0665 -0.0191,-0.0262 -0.0287,-0.0595 -0.0288,-0.0976 l -0.0162,-7.8631 h -0.0143 l -3.1618,7.9054 c -0.0118,0.0334 -0.0332,0.0596 -0.057,0.0835 -0.0261,0.0238 -0.0642,0.043 -0.1117,0.0597 -0.05,0.0168 -0.1071,0.0288 -0.1761,0.0361 -0.0667,0.0073 -0.1476,0.0098 -0.2405,0.01 -0.0976,2e-4 -0.1809,-0.0044 -0.2499,-0.0138 -0.0691,-0.0093 -0.1287,-0.0211 -0.1739,-0.0377 -0.0477,-0.0165 -0.0834,-0.0355 -0.1096,-0.0593 -0.0239,-0.0237 -0.043,-0.0475 -0.0526,-0.076 l -3.0587,-7.8926 h -0.007 l 0.0163,7.8632 c 10e-5,0.0381 -0.009,0.0714 -0.0284,0.0976 -0.0189,0.0286 -0.0522,0.0501 -0.0998,0.0669 -0.0476,0.0168 -0.1119,0.0312 -0.188,0.0432 -0.0761,0.0121 -0.1738,0.017 -0.2928,0.0173 -0.1166,2e-4 -0.2119,-0.0043 -0.2881,-0.0161 -0.0762,-0.0117 -0.1381,-0.0259 -0.1834,-0.0424 -0.0452,-0.0166 -0.0762,-0.038 -0.0929,-0.0665 -0.0168,-0.0262 -0.0263,-0.0595 -0.0264,-0.0975 l -0.0172,-8.3013 c -4e-4,-0.1975 0.0517,-0.3357 0.1539,-0.4193 0.1046,-0.0835 0.2211,-0.1266 0.3473,-0.1269 l 0.738,-0.0015 c 0.15,-3e-4 0.2833,0.0137 0.3953,0.042 0.1143,0.026 0.212,0.071 0.2978,0.1304 0.0858,0.0617 0.1574,0.1377 0.2124,0.2305 0.0573,0.0927 0.1075,0.2021 0.1506,0.3282 l 2.5965,6.5318 0.0357,-1e-4 2.6671,-6.5237 c 0.0521,-0.1381 0.109,-0.2573 0.1707,-0.355 0.0617,-0.0977 0.1281,-0.1764 0.2018,-0.2337 0.0713,-0.0597 0.1546,-0.1003 0.2426,-0.1267 0.0904,-0.0264 0.1951,-0.0385 0.3118,-0.0387 l 0.7737,-0.0016 c 0.069,-2e-4 0.1381,0.0092 0.2024,0.0305 0.0619,0.0213 0.1168,0.0545 0.1621,0.0973 0.0453,0.0451 0.0811,0.0998 0.1098,0.1688 0.0287,0.0666 0.0432,0.1499 0.0434,0.2475 z m 8.7036,-1.1084 c 2e-4,0.0739 -0.002,0.1381 -0.007,0.1953 -0.005,0.0548 -0.0117,0.1024 -0.0236,0.1452 -0.0118,0.0406 -0.026,0.0787 -0.045,0.112 -0.0189,0.031 -0.0521,0.0716 -0.0973,0.1169 -0.0475,0.0477 -0.145,0.1193 -0.2924,0.2149 -0.1497,0.0955 -0.3353,0.1887 -0.5565,0.2796 -0.2212,0.0909 -0.4734,0.1677 -0.7589,0.2301 -0.2879,0.0649 -0.5997,0.0965 -0.9401,0.0972 -0.5857,0.0012 -1.1167,-0.0953 -1.5885,-0.2895 -0.4718,-0.1943 -0.8771,-0.4815 -1.2088,-0.8641 -0.3341,-0.3802 -0.5921,-0.851 -0.7718,-1.4101 -0.1797,-0.5614 -0.2715,-1.2064 -0.273,-1.9372 -0.002,-0.75 0.0946,-1.4167 0.2862,-2.0051 0.1917,-0.5861 0.462,-1.0842 0.8111,-1.492 0.3492,-0.4078 0.7651,-0.7181 1.2527,-0.9334 0.4852,-0.2152 1.0254,-0.3235 1.6158,-0.3247 0.2618,-6e-4 0.5166,0.0228 0.7619,0.0698 0.2477,0.0495 0.4763,0.1086 0.686,0.1819 0.2096,0.0734 0.3955,0.1587 0.56,0.256 0.1621,0.0949 0.2765,0.1756 0.3385,0.2373 0.0644,0.0618 0.105,0.1093 0.1241,0.1426 0.0191,0.0309 0.0335,0.069 0.0455,0.1142 0.012,0.0452 0.0216,0.0976 0.0289,0.1571 0.007,0.0618 0.01,0.1333 0.01,0.2166 2e-4,0.0952 -0.004,0.1738 -0.0138,0.2381 -0.009,0.0666 -0.0235,0.1214 -0.0425,0.1667 -0.0165,0.0429 -0.0403,0.0763 -0.0664,0.0978 -0.0238,0.0214 -0.0571,0.031 -0.0928,0.0311 -0.0667,1e-4 -0.1572,-0.0449 -0.2764,-0.1352 -0.1169,-0.0902 -0.267,-0.1898 -0.453,-0.299 -0.1859,-0.1091 -0.4099,-0.2086 -0.6743,-0.2985 -0.2668,-0.0899 -0.5835,-0.1345 -0.9525,-0.1338 -0.4047,9e-4 -0.7712,0.0825 -1.0994,0.2428 -0.3305,0.1625 -0.6133,0.3988 -0.846,0.7111 -0.2327,0.3123 -0.4152,0.6937 -0.5428,1.1438 -0.1276,0.4503 -0.1908,0.9646 -0.1896,1.5407 0.001,0.5737 0.0641,1.0807 0.1888,1.5208 0.1247,0.4402 0.304,0.8088 0.5355,1.1035 0.2316,0.2948 0.5177,0.5179 0.8537,0.6696 0.3383,0.1493 0.7194,0.2247 1.1455,0.2238 0.3595,-7e-4 0.676,-0.0466 0.9448,-0.1353 0.2689,-0.0886 0.4972,-0.1867 0.685,-0.2966 0.1902,-0.1099 0.3448,-0.2078 0.466,-0.2962 0.1236,-0.0883 0.2188,-0.1337 0.2878,-0.1338 0.0333,-1e-4 0.0619,0.0069 0.0858,0.0212 0.0238,0.0142 0.0405,0.0404 0.0549,0.0785 0.0144,0.0404 0.0264,0.0951 0.0336,0.1641 0.007,0.069 0.01,0.1571 0.0101,0.2642 z m 8.1487,1.0664 c 1e-4,0.0429 -0.009,0.0786 -0.0283,0.1048 -0.0167,0.0286 -0.0499,0.0525 -0.0927,0.0716 -0.0452,0.0168 -0.1047,0.0312 -0.1833,0.0409 -0.0785,0.0097 -0.1761,0.0146 -0.2927,0.0149 -0.1334,2e-4 -0.2429,-0.0043 -0.3238,-0.016 -0.081,-0.0117 -0.1453,-0.0307 -0.193,-0.052 -0.05,-0.0237 -0.0858,-0.0522 -0.112,-0.0879 -0.0263,-0.0356 -0.0454,-0.0784 -0.0598,-0.1284 l -0.8331,-2.2027 c -0.1125,-0.2974 -0.2367,-0.5495 -0.3729,-0.7586 -0.1337,-0.2093 -0.2888,-0.3827 -0.4629,-0.5205 -0.1764,-0.1353 -0.3742,-0.2373 -0.5982,-0.3011 -0.2239,-0.0638 -0.4739,-0.0966 -0.7524,-0.096 l -0.5023,0.001 0.008,3.9471 c 1e-4,0.0381 -0.009,0.0714 -0.0283,0.0976 -0.019,0.0287 -0.05,0.0501 -0.0975,0.0669 -0.0452,0.0167 -0.1071,0.0312 -0.1832,0.0432 -0.0786,0.0121 -0.1738,0.017 -0.2905,0.0173 -0.1118,2e-4 -0.2071,-0.0044 -0.2856,-0.0161 -0.0786,-0.0117 -0.1429,-0.0259 -0.1882,-0.0424 -0.0477,-0.0166 -0.0787,-0.038 -0.0977,-0.0665 -0.0192,-0.0262 -0.0287,-0.0595 -0.0288,-0.0975 l -0.0179,-8.6726 c -1e-4,-0.0333 0.009,-0.0643 0.0283,-0.0906 0.019,-0.0286 0.0499,-0.05 0.0975,-0.0668 0.0452,-0.0168 0.1095,-0.0312 0.188,-0.0433 0.0785,-0.012 0.1737,-0.017 0.2856,-0.0172 0.1167,-2e-4 0.2119,0.0043 0.2905,0.0161 0.0762,0.0117 0.1381,0.0259 0.1834,0.0425 0.0476,0.0165 0.0787,0.0378 0.0978,0.0664 0.019,0.0285 0.0286,0.0571 0.0287,0.0904 l 0.008,3.6971 0.5024,-0.001 c 0.2785,-6e-4 0.5236,-0.0345 0.7306,-0.1039 0.2093,-0.0671 0.3948,-0.1699 0.554,-0.3035 0.1617,-0.136 0.3017,-0.3077 0.4251,-0.5151 0.1234,-0.2074 0.2324,-0.4528 0.3294,-0.7387 l 0.6791,-1.9725 c 0.0142,-0.0453 0.0332,-0.0882 0.0545,-0.1239 0.0238,-0.0382 0.0594,-0.0692 0.1046,-0.0931 0.0476,-0.0215 0.1094,-0.0407 0.1903,-0.0528 0.0809,-0.012 0.1881,-0.017 0.3166,-0.0173 0.1215,-2e-4 0.2167,0.0043 0.2905,0.0137 0.0762,0.0094 0.1333,0.0235 0.1786,0.0401 0.0429,0.0189 0.0715,0.0427 0.0859,0.0713 0.0143,0.0285 0.0215,0.0594 0.0216,0.0975 10e-5,0.05 -0.007,0.1071 -0.0234,0.1715 -0.0166,0.0619 -0.0379,0.1357 -0.0662,0.2191 l -0.7127,1.8798 c -0.1018,0.2859 -0.2084,0.5289 -0.3175,0.7363 -0.1067,0.2049 -0.2278,0.379 -0.356,0.5268 -0.1307,0.1479 -0.2708,0.2672 -0.4254,0.3651 -0.1522,0.0956 -0.3234,0.1697 -0.5137,0.2272 v 0.0143 c 0.2168,0.0782 0.4122,0.1682 0.5814,0.2726 0.1693,0.1044 0.3267,0.235 0.4722,0.3871 0.1431,0.152 0.2768,0.3375 0.3987,0.5538 0.1195,0.2164 0.239,0.4733 0.3563,0.7754 l 0.8543,2.1455 c 0.0479,0.1214 0.0743,0.207 0.0839,0.2546 0.01,0.0499 0.0145,0.0928 0.0145,0.1285 z m -33.738,125.8099 -0.012,-1e-4 -3.2657,-0.0242 c -0.2683,-0.006 -0.7525,-0.0621 -0.9502,-0.0378 -0.1841,0.1632 -0.4299,0.5343 -0.739,0.5145 -0.4175,-0.0266 -0.6784,-1.165 -1.4743,-0.3432 -0.2206,0.2278 -0.2812,0.5021 -0.7036,0.4935 -0.3135,-0.2453 -0.3401,-0.9177 -1.0722,-0.77 -0.481,0.0971 -0.5448,0.7039 -1.0282,0.7658 -0.3485,-0.2398 -0.361,-0.9528 -0.9931,-0.8072 -0.5291,0.1219 -0.6106,0.6503 -1.0596,0.8003 -0.357,-0.2554 -0.4763,-0.8491 -0.9414,-0.8188 -0.4769,0.0311 -0.6029,0.5324 -1.0307,0.6699 -0.8364,-0.2677 -0.1135,-1.0545 -1.7244,-0.771 0.0987,-0.2842 0.2912,-0.6023 0.6372,-0.607 0.3711,-0.005 0.4057,0.3139 0.6481,0.4477 0.2578,0.1424 0.6891,0.0914 0.8819,-0.0626 0.1341,-0.107 0.2799,-0.4396 0.4055,-0.6595 0.7123,8e-4 0.5051,0.7513 1.1345,0.8104 0.5756,0.0542 0.6684,-0.7068 0.9851,-0.8212 0.4038,-0.1457 0.6358,0.6639 1.0568,0.7703 0.6391,0.1617 0.6529,-0.5323 1.0713,-0.7735 0.5852,0.0503 0.458,0.3326 0.7841,0.6579 0.3528,0.3519 0.7348,0.143 0.9271,-0.1601 0.7445,-1.1734 0.7526,0.1856 1.622,0.2086 0.3501,-0.1802 0.3563,-0.4577 0.7036,-0.5256 0.2508,-0.049 2.1876,-0.0354 4.135,-0.0309 z m 31.4578,-0.065 0.012,-1e-4 3.2655,-0.0377 c 0.2683,-0.007 0.7523,-0.0652 0.9501,-0.0418 0.1848,0.1625 0.4321,0.5325 0.7411,0.5115 0.4174,-0.0283 0.6736,-1.1678 1.4729,-0.3493 0.2216,0.2269 0.2833,0.5009 0.7057,0.4906 0.3124,-0.2466 0.3362,-0.9191 1.0689,-0.7745 0.4814,0.0952 0.5477,0.7017 1.0314,0.7616 0.3475,-0.2413 0.357,-0.9543 0.9897,-0.8113 0.5296,0.1197 0.6133,0.6478 1.0629,0.7959 0.356,-0.2569 0.4728,-0.851 0.9381,-0.8226 0.4769,0.0291 0.605,0.5299 1.0334,0.6655 0.8353,-0.271 0.1091,-1.0549 1.7212,-0.778 -0.0999,-0.2838 -0.2937,-0.6011 -0.6397,-0.6045 -0.3711,-0.004 -0.4044,0.3157 -0.6462,0.4505 -0.2573,0.1434 -0.6888,0.0942 -0.8822,-0.059 -0.1346,-0.1065 -0.2817,-0.4385 -0.4082,-0.6578 -0.7123,0.004 -0.502,0.7534 -1.1311,0.8151 -0.5754,0.0566 -0.6713,-0.7041 -0.9885,-0.8171 -0.4044,-0.144 -0.6331,0.6665 -1.0537,0.7746 -0.6384,0.1644 -0.6551,-0.5296 -1.0745,-0.7691 -0.5849,0.0528 -0.4566,0.3345 -0.7813,0.6612 -0.3514,0.3534 -0.7342,0.1461 -0.9277,-0.1562 -0.7494,-1.1703 -0.7519,0.1886 -1.6212,0.2152 -0.3508,-0.1787 -0.3581,-0.4562 -0.7057,-0.5226 -0.2511,-0.048 -2.1878,-0.0264 -4.1352,-0.0139 z m -24.1062,4.0784 c 2e-4,0.0833 -0.004,0.1571 -0.0161,0.2214 -0.0118,0.0667 -0.0284,0.1215 -0.0497,0.1644 -0.0213,0.0452 -0.0475,0.0762 -0.0831,0.0978 -0.0357,0.0215 -0.0737,0.0311 -0.1142,0.0311 l -4.9946,0.0104 c -0.0642,1e-4 -0.1214,-0.007 -0.1714,-0.0235 -0.0477,-0.0166 -0.0906,-0.0426 -0.124,-0.0807 -0.0357,-0.0356 -0.0621,-0.0903 -0.0788,-0.1593 -0.0168,-0.069 -0.0242,-0.1547 -0.0244,-0.2571 -2e-4,-0.0928 0.004,-0.1738 0.0114,-0.2428 0.007,-0.0691 0.0212,-0.131 0.0449,-0.1858 0.0237,-0.0524 0.0545,-0.1049 0.0901,-0.1597 0.0356,-0.0524 0.0831,-0.1097 0.1401,-0.1693 l 1.8007,-1.8606 c 0.4181,-0.4294 0.7506,-0.8134 1.0022,-1.1543 0.2516,-0.3386 0.4439,-0.6484 0.5813,-0.9297 0.1352,-0.2788 0.2251,-0.5313 0.2675,-0.7599 0.0424,-0.2286 0.0633,-0.4429 0.0629,-0.6429 -4e-4,-0.2 -0.0341,-0.3904 -0.1011,-0.5688 -0.0694,-0.1784 -0.165,-0.3353 -0.2938,-0.4707 -0.1265,-0.1355 -0.2862,-0.2423 -0.4792,-0.3204 -0.1906,-0.0782 -0.4121,-0.1182 -0.662,-0.1177 -0.2929,6e-4 -0.5547,0.0416 -0.7878,0.1207 -0.2307,0.079 -0.4353,0.1675 -0.6112,0.2607 -0.1737,0.0932 -0.3211,0.1816 -0.4376,0.2604 -0.1164,0.0788 -0.2044,0.1195 -0.2616,0.1196 -0.0333,1e-4 -0.0643,-0.009 -0.0905,-0.0284 -0.0262,-0.019 -0.0477,-0.0475 -0.0645,-0.0903 -0.0167,-0.0405 -0.0311,-0.0976 -0.0408,-0.1666 -0.01,-0.0714 -0.0146,-0.1547 -0.0148,-0.2523 -1e-4,-0.0691 0.002,-0.1286 0.007,-0.1809 0.005,-0.05 0.0117,-0.0953 0.0235,-0.1334 0.0119,-0.0357 0.026,-0.0715 0.045,-0.1049 0.019,-0.0309 0.057,-0.0715 0.1116,-0.1216 0.0571,-0.0477 0.1522,-0.1146 0.2901,-0.1982 0.1355,-0.0859 0.3091,-0.1672 0.5161,-0.2487 0.2045,-0.0837 0.4329,-0.1508 0.6828,-0.2085 0.2475,-0.0552 0.5093,-0.0843 0.783,-0.0849 0.4381,-9e-4 0.8215,0.0602 1.1479,0.1833 0.3287,0.1208 0.6005,0.2892 0.8176,0.503 0.217,0.2138 0.3794,0.4611 0.4871,0.7442 0.1077,0.283 0.1607,0.5853 0.1614,0.9067 6e-4,0.288 -0.025,0.5761 -0.0744,0.8619 -0.0517,0.2858 -0.1582,0.5955 -0.3218,0.9291 -0.166,0.3336 -0.4033,0.7031 -0.7143,1.1108 -0.3086,0.4077 -0.7219,0.8776 -1.2374,1.4095 l -1.4253,1.4956 3.928,-0.008 c 0.0358,-1e-4 0.0715,0.009 0.1072,0.0308 0.0358,0.0213 0.0668,0.0522 0.0907,0.0926 0.0263,0.0428 0.0454,0.0951 0.0574,0.157 0.0121,0.0619 0.017,0.1357 0.0171,0.219 z m 7.5169,-4.0364 c 10e-4,0.6928 -0.0521,1.3261 -0.1604,1.8977 -0.1083,0.5715 -0.2882,1.0623 -0.5397,1.4747 -0.2539,0.4124 -0.5842,0.7297 -0.9931,0.9567 -0.409,0.227 -0.9135,0.3399 -1.5134,0.3412 -0.5666,0.001 -1.0429,-0.0979 -1.4338,-0.2994 -0.3884,-0.2016 -0.7009,-0.4985 -0.9398,-0.8908 -0.2365,-0.3923 -0.4065,-0.8753 -0.5077,-1.4488 -0.1011,-0.5735 -0.1525,-1.2328 -0.154,-1.9756 -10e-4,-0.688 0.052,-1.3189 0.1627,-1.8929 0.1107,-0.574 0.2906,-1.0671 0.5421,-1.4795 0.2491,-0.4124 0.5794,-0.7296 0.9884,-0.9566 0.409,-0.227 0.9111,-0.34 1.5062,-0.3412 0.5714,-0.001 1.05,0.0978 1.4409,0.2994 0.3884,0.2015 0.7009,0.4984 0.9398,0.8907 0.2365,0.3924 0.4065,0.8753 0.5077,1.4488 0.1012,0.5735 0.1525,1.2328 0.1541,1.9756 z m -1.2283,0.0858 c -9e-4,-0.4499 -0.0184,-0.8546 -0.0501,-1.2116 -0.0341,-0.357 -0.0823,-0.6735 -0.1472,-0.9472 -0.0624,-0.2736 -0.1438,-0.5091 -0.2442,-0.7065 -0.1004,-0.195 -0.2198,-0.359 -0.3605,-0.4849 -0.1384,-0.1283 -0.2981,-0.2208 -0.4767,-0.2776 -0.1811,-0.0591 -0.3811,-0.0873 -0.6049,-0.0868 -0.3951,8e-4 -0.714,0.0943 -0.9612,0.2805 -0.2448,0.1862 -0.4395,0.4413 -0.5793,0.7678 -0.1421,0.324 -0.2366,0.7051 -0.288,1.1432 -0.0491,0.4358 -0.0743,0.9048 -0.0733,1.4072 0.001,0.6713 0.0383,1.2449 0.1083,1.7162 0.07,0.4712 0.1827,0.8542 0.3333,1.1515 0.1506,0.2973 0.3438,0.5135 0.5798,0.6463 0.236,0.1352 0.5194,0.2013 0.855,0.2006 0.2596,-5e-4 0.488,-0.0438 0.6854,-0.1275 0.1974,-0.0838 0.3662,-0.2032 0.5087,-0.3582 0.1402,-0.1574 0.2588,-0.3434 0.3512,-0.5626 0.0924,-0.2192 0.1657,-0.4598 0.2223,-0.7241 0.0542,-0.2644 0.0917,-0.5525 0.1125,-0.8597 0.0208,-0.3095 0.0296,-0.6309 0.0289,-0.9666 z m 8.2047,3.9635 c 2e-4,0.0881 -0.007,0.1619 -0.021,0.2214 -0.0141,0.0596 -0.0307,0.1096 -0.0544,0.1454 -0.0238,0.0381 -0.0499,0.0643 -0.0808,0.0811 -0.0309,0.0167 -0.0619,0.0239 -0.0928,0.024 l -4.7136,0.01 c -0.031,10e-5 -0.0619,-0.007 -0.0906,-0.0236 -0.0262,-0.0166 -0.0548,-0.0427 -0.0787,-0.0808 -0.0262,-0.0357 -0.0454,-0.0856 -0.0598,-0.1451 -0.0144,-0.0595 -0.0217,-0.1333 -0.0219,-0.2213 -10e-5,-0.0834 0.007,-0.1548 0.021,-0.2144 0.0142,-0.0619 0.0307,-0.1119 0.0521,-0.15 0.0189,-0.0406 0.0451,-0.0691 0.076,-0.0907 0.0309,-0.0214 0.0642,-0.031 0.0999,-0.0311 l 1.8783,-0.004 -0.0142,-6.8704 -1.7428,1.0463 c -0.088,0.0454 -0.1594,0.0741 -0.2141,0.0837 -0.0524,0.01 -0.0952,2e-4 -0.1287,-0.0306 -0.0333,-0.0309 -0.0549,-0.0808 -0.0669,-0.1499 -0.012,-0.069 -0.017,-0.157 -0.0172,-0.2642 -2e-4,-0.0785 0.002,-0.1476 0.009,-0.2024 0.007,-0.0571 0.0188,-0.1024 0.033,-0.1405 0.0143,-0.0357 0.0332,-0.0691 0.0593,-0.0977 0.0238,-0.0262 0.0571,-0.0549 0.0998,-0.0835 l 2.078,-1.3351 c 0.019,-0.0143 0.0404,-0.0263 0.0689,-0.0358 0.0286,-0.007 0.0643,-0.0169 0.1047,-0.0264 0.0429,-0.01 0.0904,-0.0169 0.1476,-0.0194 0.0547,-0.002 0.1238,-0.003 0.2095,-0.003 0.1095,-2e-4 0.2047,0.004 0.2785,0.0137 0.0739,0.009 0.131,0.0212 0.1739,0.0377 0.0429,0.0166 0.0691,0.038 0.0834,0.0617 0.0144,0.0262 0.0216,0.0524 0.0216,0.0809 l 0.0164,7.9322 1.6331,-0.003 c 0.0381,-1e-4 0.0738,0.009 0.1048,0.0307 0.0334,0.0214 0.0597,0.0499 0.0811,0.0903 0.0216,0.0381 0.0383,0.088 0.0504,0.1499 0.012,0.0595 0.0169,0.1309 0.0171,0.2142 z m 7.4343,-2.4698 c 8e-4,0.3952 -0.0579,0.7762 -0.1786,1.1478 -0.1206,0.3693 -0.3056,0.6958 -0.5574,0.9773 -0.2494,0.2814 -0.5679,0.5082 -0.9532,0.678 -0.3853,0.1698 -0.8398,0.2565 -1.366,0.2576 -0.3761,8e-4 -0.7095,-0.0462 -0.9977,-0.1384 -0.2883,-0.0923 -0.5385,-0.2227 -0.7531,-0.3961 -0.2146,-0.1709 -0.3936,-0.3824 -0.5346,-0.6321 -0.1433,-0.252 -0.2582,-0.5375 -0.3446,-0.8587 -0.0863,-0.3188 -0.149,-0.671 -0.1878,-1.0518 -0.0365,-0.3809 -0.0564,-0.7903 -0.0573,-1.2283 -8e-4,-0.3857 0.0198,-0.7761 0.0595,-1.1714 0.042,-0.3953 0.115,-0.7763 0.2214,-1.1455 0.1063,-0.3669 0.2508,-0.7124 0.4335,-1.0365 0.185,-0.3218 0.413,-0.6055 0.691,-0.8441 0.2757,-0.2411 0.6062,-0.4322 0.9916,-0.5711 0.3853,-0.1412 0.8351,-0.2112 1.3469,-0.2122 0.1714,-4e-4 0.3476,0.009 0.5238,0.0298 0.1763,0.0211 0.3405,0.0493 0.4882,0.0823 0.1501,0.0354 0.2739,0.0733 0.3764,0.1159 0.1025,0.0402 0.1716,0.0758 0.2026,0.0996 0.0334,0.0261 0.0572,0.0546 0.0739,0.0855 0.0167,0.0285 0.0287,0.0618 0.0383,0.0976 0.01,0.0332 0.0168,0.0737 0.0217,0.1189 0.005,0.0429 0.007,0.0976 0.007,0.1619 2e-4,0.0857 3e-4,0.1571 -0.002,0.2166 -0.002,0.0619 -0.0116,0.1096 -0.0282,0.1477 -0.0166,0.0381 -0.038,0.0643 -0.0641,0.0835 -0.0238,0.019 -0.0571,0.0286 -0.0999,0.0287 -0.0524,10e-5 -0.1215,-0.0164 -0.2097,-0.0496 -0.0881,-0.0307 -0.1953,-0.0662 -0.3215,-0.1064 -0.1263,-0.0402 -0.2788,-0.0756 -0.4573,-0.1062 -0.1787,-0.0329 -0.3858,-0.0492 -0.6239,-0.0487 -0.4332,9e-4 -0.8044,0.0897 -1.1159,0.2666 -0.3115,0.1792 -0.5658,0.4153 -0.7627,0.7133 -0.197,0.298 -0.3439,0.6435 -0.4383,1.0365 -0.0944,0.393 -0.1483,0.8026 -0.1617,1.2311 0.1212,-0.0693 0.2568,-0.1386 0.409,-0.2103 0.1498,-0.0694 0.314,-0.1316 0.4948,-0.1891 0.1784,-0.0551 0.3664,-0.1008 0.5663,-0.1369 0.1999,-0.0361 0.4141,-0.0532 0.6426,-0.0537 0.4881,-0.001 0.9001,0.0648 1.2336,0.1951 0.336,0.1326 0.6053,0.3153 0.8129,0.5506 0.2077,0.2352 0.3558,0.5111 0.4445,0.8299 0.0888,0.3165 0.1347,0.6616 0.1355,1.0353 z m -1.2139,0.1096 c -6e-4,-0.2713 -0.0273,-0.5165 -0.0825,-0.7378 -0.0528,-0.2189 -0.1436,-0.4068 -0.2677,-0.5612 -0.1265,-0.1521 -0.2934,-0.2708 -0.5031,-0.3537 -0.2097,-0.0829 -0.4669,-0.1252 -0.7739,-0.1246 -0.1715,3e-4 -0.3452,0.015 -0.5165,0.0463 -0.1714,0.0313 -0.3379,0.0721 -0.4973,0.1272 -0.1618,0.0527 -0.314,0.1173 -0.4615,0.189 -0.1451,0.0718 -0.2782,0.1506 -0.3995,0.2342 10e-4,0.6023 0.0404,1.1045 0.1174,1.509 0.0795,0.4046 0.1896,0.7281 0.3377,0.973 0.1458,0.2449 0.3294,0.4183 0.5487,0.5226 0.2192,0.1043 0.474,0.1561 0.7668,0.1555 0.2976,-6e-4 0.5546,-0.0559 0.7734,-0.1682 0.2188,-0.1123 0.3994,-0.2627 0.5418,-0.4534 0.1449,-0.1884 0.2492,-0.4005 0.3177,-0.6363 0.0662,-0.2335 0.099,-0.474 0.0985,-0.7216 z m -53.9424,18.6443 c -0.0251,0.0437 -0.0578,0.0758 -0.0965,0.0936 -0.0404,0.0205 -0.0921,0.0235 -0.157,0.0119 -0.0648,-0.0117 -0.1442,-0.0354 -0.2355,-0.0695 -0.0914,-0.0341 -0.2049,-0.0918 -0.3396,-0.1689 -0.1266,-0.0724 -0.2312,-0.1395 -0.3123,-0.2041 -0.081,-0.0645 -0.1417,-0.121 -0.1819,-0.1695 -0.0402,-0.0484 -0.0638,-0.0945 -0.0666,-0.1397 -0.004,-0.0424 0.007,-0.0869 0.0318,-0.1307 l 5.1701,-9.0348 -0.0162,-0.009 -8.7893,7.0182 c -0.0354,0.0306 -0.0768,0.0468 -0.1194,0.0587 -0.0453,0.0104 -0.1009,0.008 -0.1657,-0.004 -0.0676,-0.0133 -0.14,-0.0366 -0.2229,-0.073 -0.0801,-0.0351 -0.1732,-0.0847 -0.2782,-0.1448 -0.1105,-0.0632 -0.2016,-0.1226 -0.2735,-0.1783 -0.0718,-0.0556 -0.1313,-0.1078 -0.1715,-0.1563 -0.043,-0.0499 -0.0708,-0.0949 -0.0848,-0.1392 -0.0113,-0.0428 -0.0171,-0.0825 -0.009,-0.1214 l 1.7512,-11.0457 -0.008,-0.005 -5.17,9.0348 c -0.025,0.0438 -0.0577,0.0759 -0.0965,0.0937 -0.0403,0.0205 -0.0921,0.0235 -0.1569,0.0118 -0.0649,-0.0117 -0.147,-0.0369 -0.241,-0.0725 -0.094,-0.0357 -0.2075,-0.0934 -0.3422,-0.1705 -0.132,-0.0755 -0.2366,-0.1426 -0.315,-0.2056 -0.0784,-0.063 -0.139,-0.1195 -0.1792,-0.1679 -0.0402,-0.0484 -0.0612,-0.0931 -0.0612,-0.1367 -0.002,-0.0409 0.01,-0.0853 0.0345,-0.1291 l 5.458,-9.5381 c 0.1299,-0.2271 0.28,-0.3518 0.4506,-0.3812 0.1733,-0.0279 0.3335,-0.002 0.4762,0.08 l 0.835,0.4778 c 0.1697,0.0971 0.3111,0.1998 0.4189,0.3051 0.1121,0.1041 0.1928,0.2193 0.2506,0.3431 0.0563,0.1266 0.087,0.2604 0.0879,0.4025 0.004,0.1437 -0.0119,0.3019 -0.0463,0.4746 l -1.3758,9.1835 0.0404,0.0232 7.3186,-5.7538 c 0.15,-0.1248 0.2929,-0.2246 0.4271,-0.2967 0.1342,-0.072 0.2613,-0.1192 0.3823,-0.137 0.12,-0.0221 0.2409,-0.0147 0.3578,0.0122 0.1196,0.0285 0.2459,0.0826 0.3779,0.1582 l 0.8754,0.5009 c 0.0781,0.0447 0.1499,0.1003 0.2085,0.1666 0.056,0.0647 0.0961,0.1384 0.1191,0.217 0.0213,0.0812 0.0258,0.1672 0.0127,0.265 -0.0115,0.0951 -0.0501,0.2001 -0.1143,0.3123 z m 8.5725,3.139 c -0.0265,0.0675 -0.0703,0.1112 -0.1274,0.1295 -0.0601,0.0171 -0.13,0.0168 -0.2178,0.003 -0.0849,-0.013 -0.2039,-0.0495 -0.357,-0.1095 -0.1445,-0.0566 -0.2595,-0.1118 -0.3393,-0.1634 -0.0798,-0.0516 -0.1342,-0.1 -0.1608,-0.151 -0.0266,-0.0511 -0.0273,-0.1089 3e-4,-0.1794 l 0.3036,-0.7746 c -0.4738,0.2307 -0.954,0.3675 -1.4424,0.4062 -0.4874,0.0358 -0.9599,-0.0343 -1.4164,-0.2132 -0.4016,-0.1574 -0.745,-0.3529 -1.0272,-0.5854 -0.2822,-0.2324 -0.4987,-0.4966 -0.6487,-0.7856 -0.1501,-0.289 -0.2315,-0.6086 -0.2448,-0.9489 -0.0121,-0.3432 0.0543,-0.6998 0.2003,-1.0724 0.1714,-0.4372 0.4064,-0.7817 0.708,-1.0325 0.2998,-0.2548 0.6559,-0.4233 1.0681,-0.5055 0.4093,-0.0833 0.8741,-0.0873 1.3893,-0.007 0.5153,0.0801 1.0705,0.2367 1.6628,0.4689 l 1.0517,0.4122 0.237,-0.6045 c 0.1161,-0.2964 0.1878,-0.5729 0.218,-0.8285 0.0261,-0.2538 0.003,-0.483 -0.0763,-0.6899 -0.0789,-0.2069 -0.2132,-0.3916 -0.4028,-0.5539 -0.1886,-0.1653 -0.4452,-0.3099 -0.766,-0.4356 -0.3438,-0.1348 -0.669,-0.2148 -0.974,-0.2362 -0.3079,-0.0225 -0.5833,-0.0255 -0.8287,-0.003 -0.2454,0.0223 -0.4544,0.0453 -0.6264,0.0761 -0.1692,0.0318 -0.2893,0.0322 -0.3558,0.006 -0.0462,-0.0181 -0.082,-0.0457 -0.1046,-0.0816 -0.0266,-0.0342 -0.0417,-0.0806 -0.0493,-0.1378 -0.009,-0.0542 -0.003,-0.1197 0.0129,-0.1946 0.0172,-0.0779 0.0413,-0.1565 0.0758,-0.2445 0.0552,-0.1409 0.1088,-0.2519 0.1612,-0.3261 0.0524,-0.0742 0.1326,-0.1342 0.2364,-0.1781 0.1039,-0.044 0.2713,-0.0799 0.4965,-0.1101 0.224,-0.0273 0.4775,-0.0363 0.7535,-0.0262 0.2721,0.0118 0.5655,0.0455 0.8763,0.103 0.3079,0.0564 0.61,0.1443 0.9019,0.2587 0.546,0.214 0.9871,0.4579 1.3219,0.7347 0.3348,0.2767 0.5704,0.5857 0.7119,0.9221 0.1415,0.3364 0.1935,0.7054 0.159,1.1083 -0.0346,0.4028 -0.1453,0.8468 -0.3339,1.328 z m 0.002,-4.0881 -1.1932,-0.4676 c -0.3814,-0.1495 -0.7263,-0.2474 -1.0359,-0.2909 -0.3056,-0.0453 -0.5787,-0.0372 -0.8171,0.0183 -0.2355,0.0566 -0.4312,0.1559 -0.592,0.3028 -0.158,0.1479 -0.283,0.3393 -0.375,0.574 -0.1575,0.402 -0.1586,0.7705 -4e-4,1.1067 0.1582,0.3362 0.4607,0.5935 0.9143,0.7713 0.3641,0.1427 0.7418,0.1824 1.1286,0.114 0.3857,-0.0655 0.8289,-0.2269 1.3256,-0.4824 z m 9.4399,-1.3482 c -0.0333,0.1184 -0.0675,0.2168 -0.1055,0.2944 -0.038,0.0777 -0.0786,0.1416 -0.12,0.1856 -0.0393,0.0479 -0.0803,0.0789 -0.1191,0.0909 -0.0397,0.015 -0.082,0.0162 -0.1268,0.004 l -2.9571,-0.8332 -1.9477,6.9132 c -0.0137,0.0485 -0.0368,0.0846 -0.07,0.1112 -0.0325,0.0237 -0.0769,0.0439 -0.1375,0.053 -0.0597,0.006 -0.1366,0.004 -0.2355,-0.0107 -0.0961,-0.014 -0.2172,-0.0416 -0.3636,-0.0828 -0.1434,-0.0404 -0.2582,-0.0793 -0.3473,-0.1175 -0.0922,-0.0391 -0.1618,-0.0783 -0.2095,-0.1147 -0.05,-0.0403 -0.0803,-0.0815 -0.0927,-0.1178 -0.0114,-0.0392 -0.009,-0.0812 0.004,-0.1297 l 2.169,-7.6988 c 0.0504,-0.179 0.126,-0.2985 0.2314,-0.3637 0.1016,-0.0631 0.2211,-0.0753 0.3615,-0.0357 l 3.9608,1.1159 c 0.0479,0.0134 0.0832,0.0365 0.1084,0.0731 0.0251,0.0365 0.041,0.0836 0.0516,0.1487 0.0115,0.0622 0.0128,0.1379 0.005,0.2209 -0.007,0.0832 -0.0287,0.1819 -0.0603,0.2941 z m 5.3162,9.2873 c -0.0162,0.0707 -0.053,0.1204 -0.1069,0.1469 -0.0568,0.0258 -0.1259,0.0359 -0.2149,0.0349 -0.0859,-2e-4 -0.209,-0.0187 -0.3693,-0.0554 -0.1513,-0.0345 -0.2732,-0.0721 -0.3597,-0.1113 -0.0866,-0.0391 -0.1476,-0.0789 -0.1815,-0.1255 -0.0338,-0.0465 -0.0431,-0.1036 -0.0262,-0.1773 l 0.1854,-0.8111 c -0.4343,0.2983 -0.889,0.5048 -1.3663,0.6155 -0.4767,0.1076 -0.9543,0.1083 -1.4324,-0.001 -0.4205,-0.0962 -0.789,-0.2386 -1.1025,-0.4266 -0.3136,-0.1881 -0.5667,-0.4174 -0.758,-0.6809 -0.1912,-0.2636 -0.3191,-0.5676 -0.3826,-0.9022 -0.0629,-0.3376 -0.0501,-0.7 0.0391,-1.0902 0.1047,-0.4577 0.286,-0.8333 0.5471,-1.126 0.2588,-0.2964 0.5859,-0.5159 0.9814,-0.6582 0.3924,-0.143 0.8516,-0.2159 1.373,-0.213 0.5214,0.003 1.0937,0.0754 1.7139,0.2172 l 1.1012,0.2518 0.1447,-0.6329 c 0.0709,-0.3103 0.1008,-0.5944 0.0928,-0.8516 -0.0118,-0.2549 -0.069,-0.4781 -0.1776,-0.671 -0.1088,-0.193 -0.2689,-0.3557 -0.4806,-0.4881 -0.2109,-0.1355 -0.4861,-0.2405 -0.8219,-0.3173 -0.3601,-0.0823 -0.6936,-0.1133 -0.9983,-0.0892 -0.3079,0.0234 -0.5807,0.0612 -0.8201,0.1196 -0.2393,0.0585 -0.4426,0.1122 -0.6082,0.1681 -0.1626,0.0566 -0.2813,0.0747 -0.3509,0.0588 -0.0484,-0.0111 -0.0879,-0.0331 -0.1156,-0.0652 -0.0314,-0.0299 -0.0532,-0.0736 -0.0692,-0.129 -0.0167,-0.0523 -0.0208,-0.1179 -0.016,-0.1944 0.005,-0.0796 0.0176,-0.1609 0.0387,-0.253 0.0337,-0.1475 0.0702,-0.2653 0.1111,-0.3464 0.0408,-0.0812 0.1112,-0.1524 0.2074,-0.2112 0.0962,-0.0588 0.2565,-0.1192 0.4746,-0.1824 0.2175,-0.0602 0.4669,-0.1067 0.7414,-0.1376 0.2708,-0.0287 0.5659,-0.0388 0.8818,-0.028 0.3129,0.0101 0.6247,0.0523 0.9303,0.1222 0.5717,0.1307 1.044,0.3065 1.4162,0.5307 0.3722,0.224 0.6509,0.4947 0.8407,0.8064 0.1898,0.3117 0.2959,0.669 0.3215,1.0724 0.0255,0.4035 -0.0182,0.8591 -0.1334,1.3629 z m -0.6037,-4.0432 -1.2494,-0.2857 c -0.3993,-0.0913 -0.755,-0.1371 -1.0676,-0.1342 -0.3089,5e-4 -0.5778,0.049 -0.8054,0.1392 -0.2245,0.0909 -0.4032,0.2181 -0.5405,0.3872 -0.1344,0.1697 -0.2296,0.3774 -0.2857,0.6233 -0.0963,0.4208 -0.0427,0.7855 0.1635,1.0945 0.2063,0.309 0.5436,0.5187 1.0185,0.6272 0.3813,0.0872 0.7607,0.0705 1.1331,-0.0545 0.3716,-0.1219 0.7861,-0.3472 1.2395,-0.6735 z m 9.2348,2.7368 c -0.052,0.4159 -0.1786,0.778 -0.3832,1.0891 -0.2043,0.308 -0.4708,0.5637 -0.805,0.7601 -0.331,0.1969 -0.7259,0.3286 -1.1784,0.3959 -0.4556,0.0669 -0.9623,0.0671 -1.5196,-0.003 -0.3141,-0.0392 -0.6039,-0.0977 -0.8721,-0.1788 -0.2682,-0.0812 -0.5072,-0.1714 -0.726,-0.2718 -0.2162,-0.0968 -0.3943,-0.1985 -0.5377,-0.3022 -0.1438,-0.1005 -0.2426,-0.1859 -0.2975,-0.2468 -0.0577,-0.0644 -0.0976,-0.1202 -0.1226,-0.1709 -0.0253,-0.0477 -0.0375,-0.1 -0.0428,-0.1578 -0.006,-0.0547 -0.009,-0.125 -0.009,-0.2044 6e-4,-0.0793 0.009,-0.1735 0.0229,-0.283 0.0121,-0.0969 0.0285,-0.1775 0.0494,-0.2447 0.0205,-0.0641 0.0429,-0.1185 0.0665,-0.1569 0.0208,-0.0418 0.0463,-0.0704 0.0737,-0.0892 0.0274,-0.0188 0.0624,-0.024 0.1024,-0.019 0.0678,0.008 0.1551,0.0607 0.2615,0.1598 0.1069,0.0959 0.2526,0.2062 0.4403,0.3313 0.1841,0.1278 0.4188,0.2524 0.7007,0.3734 0.2789,0.1206 0.6337,0.2094 1.0618,0.2629 0.3018,0.0377 0.5766,0.0403 0.825,0.005 0.2481,-0.0326 0.4634,-0.1041 0.6484,-0.208 0.185,-0.104 0.3339,-0.2441 0.4532,-0.423 0.1158,-0.1761 0.1897,-0.3924 0.221,-0.6425 0.027,-0.2158 0.005,-0.4123 -0.0632,-0.5955 -0.0678,-0.1831 -0.1915,-0.3447 -0.3706,-0.4877 -0.1761,-0.1428 -0.4107,-0.2673 -0.7039,-0.3739 -0.2935,-0.1034 -0.6526,-0.1831 -1.0806,-0.2367 l -0.9023,-0.1127 c -0.0616,-0.008 -0.1066,-0.0228 -0.1408,-0.0494 -0.0343,-0.0264 -0.0607,-0.0647 -0.083,-0.112 -0.0218,-0.0503 -0.0325,-0.1152 -0.0324,-0.1914 2e-4,-0.0762 0.008,-0.1673 0.0213,-0.2704 0.0125,-0.1001 0.0293,-0.1838 0.0506,-0.2542 0.0216,-0.0735 0.0472,-0.1275 0.0742,-0.1686 0.0301,-0.0407 0.0648,-0.0681 0.1045,-0.0853 0.0366,-0.0177 0.084,-0.0213 0.1363,-0.0148 l 0.8745,0.1093 c 0.3757,0.0469 0.7061,0.0565 0.9844,0.0309 0.282,-0.0283 0.5211,-0.0905 0.7177,-0.1866 0.1996,-0.0958 0.3504,-0.2262 0.4615,-0.3901 0.1082,-0.1644 0.1763,-0.3591 0.2044,-0.5843 0.0254,-0.2033 0.005,-0.3869 -0.0594,-0.5505 -0.064,-0.1637 -0.1623,-0.303 -0.2911,-0.4239 -0.126,-0.1173 -0.2922,-0.2144 -0.4887,-0.2929 -0.1967,-0.0786 -0.4121,-0.1309 -0.6462,-0.1601 -0.3664,-0.0459 -0.6983,-0.0429 -0.9953,0.006 -0.2969,0.0486 -0.555,0.1117 -0.7738,0.1859 -0.2192,0.0774 -0.3999,0.147 -0.5424,0.2117 -0.143,0.0679 -0.2405,0.097 -0.2959,0.0901 -0.0308,-0.004 -0.0578,-0.0135 -0.0835,-0.0326 -0.0227,-0.0187 -0.0438,-0.05 -0.0603,-0.0934 -0.0168,-0.0402 -0.0252,-0.0984 -0.0259,-0.1683 -6e-4,-0.07 0.007,-0.1548 0.019,-0.2517 0.0223,-0.1783 0.0518,-0.3143 0.0924,-0.4141 0.041,-0.1028 0.1012,-0.1842 0.1841,-0.2469 0.0798,-0.0631 0.217,-0.1349 0.4108,-0.2091 0.1908,-0.0746 0.4141,-0.1356 0.6668,-0.1803 0.2526,-0.0447 0.5257,-0.0773 0.8183,-0.0915 0.2931,-0.0173 0.5887,-0.006 0.8905,0.0319 0.4403,0.055 0.8348,0.1519 1.1926,0.292 0.3543,0.1427 0.6508,0.3226 0.8883,0.5492 0.2379,0.2235 0.4111,0.4897 0.5206,0.7892 0.1092,0.3027 0.1386,0.643 0.0913,1.0214 -0.0281,0.2252 -0.092,0.4363 -0.1883,0.6307 -0.0996,0.1972 -0.2247,0.3721 -0.3813,0.5241 -0.157,0.155 -0.3424,0.2875 -0.5594,0.397 -0.2139,0.1098 -0.4454,0.1857 -0.6977,0.2272 l -0.0196,0.007 c 0.234,0.0546 0.4563,0.1523 0.6701,0.2933 0.2134,0.1442 0.4018,0.3139 0.5577,0.5176 0.159,0.204 0.2772,0.4347 0.3571,0.6957 0.0796,0.264 0.1011,0.543 0.0636,0.8432 z m 9.1827,2.5774 c -0.001,0.0441 -0.0144,0.0847 -0.0401,0.1188 -0.0257,0.0373 -0.0635,0.0647 -0.1199,0.0855 -0.0533,0.0208 -0.1312,0.0348 -0.2277,0.0452 -0.0965,0.0103 -0.2176,0.0138 -0.3634,0.0104 -0.1458,-0.003 -0.2667,-0.0125 -0.3625,-0.0273 -0.0959,-0.0148 -0.1762,-0.0324 -0.2347,-0.0559 -0.0615,-0.0235 -0.1011,-0.0528 -0.1251,-0.0912 -0.0239,-0.0384 -0.0354,-0.0764 -0.0345,-0.1206 l 0.1111,-4.7827 c 0.006,-0.2426 0.0175,-0.485 0.0357,-0.7368 0.0182,-0.2486 0.0394,-0.4908 0.0636,-0.733 -0.1454,0.2457 -0.306,0.4815 -0.4761,0.7172 -0.173,0.2323 -0.346,0.4648 -0.5189,0.694 l -3.5774,4.74 c -0.0446,0.0495 -0.0828,0.0896 -0.1178,0.1266 -0.035,0.037 -0.0791,0.0643 -0.1292,0.0852 -0.0533,0.0209 -0.1188,0.0351 -0.1997,0.0427 -0.0778,0.008 -0.1772,0.008 -0.2919,0.006 -0.1334,-0.003 -0.245,-0.012 -0.3285,-0.0265 -0.0865,-0.0146 -0.1544,-0.0319 -0.2036,-0.0552 -0.0522,-0.0233 -0.0888,-0.0525 -0.1096,-0.0908 -0.0208,-0.0383 -0.0293,-0.0763 -0.0282,-0.1204 l 0.1934,-8.3304 c 0.001,-0.0441 0.0112,-0.0817 0.0338,-0.119 0.0226,-0.0373 0.0637,-0.0679 0.1231,-0.0885 0.0564,-0.0239 0.1344,-0.041 0.2339,-0.0482 0.0964,-0.007 0.2144,-0.008 0.3571,-0.004 0.2917,0.007 0.4928,0.0336 0.6003,0.0834 0.1074,0.0497 0.1617,0.1203 0.1596,0.2117 l -0.1117,4.8111 c -0.006,0.2394 -0.0173,0.4788 -0.0353,0.7147 -0.0179,0.2392 -0.0388,0.472 -0.0629,0.7078 0.1451,-0.233 0.293,-0.4565 0.441,-0.6801 0.1448,-0.2204 0.3051,-0.4374 0.4714,-0.6479 l 3.6254,-4.8051 c 0.0353,-0.0496 0.0735,-0.0897 0.1146,-0.1234 0.0412,-0.0337 0.0884,-0.061 0.1478,-0.0785 0.0563,-0.0208 0.1249,-0.0318 0.2058,-0.0394 0.0777,-0.008 0.1802,-0.0116 0.3074,-0.009 0.1273,0.003 0.2357,0.0118 0.3223,0.0233 0.0898,0.0116 0.1577,0.0289 0.2099,0.0553 0.049,0.0264 0.0856,0.0556 0.1064,0.0939 0.0208,0.0383 0.0292,0.0795 0.028,0.1299 z m 9.9073,-0.7066 c 0.004,0.0503 -0.005,0.092 -0.0273,0.1286 -0.0223,0.0333 -0.057,0.0676 -0.1107,0.0971 -0.054,0.0263 -0.1268,0.051 -0.2248,0.0713 -0.0949,0.0201 -0.215,0.0358 -0.3605,0.0471 -0.1547,0.0121 -0.2789,0.0155 -0.3758,0.0104 -0.1,-0.005 -0.1757,-0.0179 -0.2331,-0.0355 -0.0577,-0.0208 -0.0973,-0.0493 -0.1245,-0.0788 -0.0274,-0.0326 -0.043,-0.0725 -0.0469,-0.1228 l -0.284,-3.6352 -4.1396,0.3234 0.284,3.6353 c 0.004,0.0502 -0.005,0.092 -0.0273,0.1285 -0.0223,0.0334 -0.057,0.0677 -0.1108,0.0972 -0.0539,0.0263 -0.1267,0.051 -0.2247,0.0713 -0.0949,0.02 -0.2182,0.036 -0.3698,0.0478 -0.1485,0.0116 -0.2696,0.0148 -0.3665,0.01 -0.1001,-0.005 -0.1789,-0.0177 -0.2363,-0.0353 -0.0607,-0.0206 -0.1034,-0.0488 -0.1275,-0.0785 -0.0243,-0.0329 -0.0368,-0.073 -0.0408,-0.1233 l -0.6474,-8.2884 c -0.004,-0.0503 0.002,-0.0918 0.021,-0.1281 0.0193,-0.0331 0.057,-0.0677 0.1136,-0.1005 0.0535,-0.0327 0.1294,-0.0576 0.2276,-0.0747 0.0952,-0.017 0.2156,-0.0295 0.3641,-0.0411 0.1516,-0.0119 0.2756,-0.0184 0.3723,-0.0165 0.0997,0.002 0.1754,0.0148 0.2333,0.0387 0.0579,0.024 0.0975,0.0524 0.1247,0.0819 0.0274,0.0327 0.043,0.0725 0.047,0.1228 l 0.2633,3.3713 4.1397,-0.3234 -0.2635,-3.3713 c -0.004,-0.0503 0.005,-0.0921 0.0274,-0.1286 0.0223,-0.0333 0.0569,-0.0676 0.1104,-0.1003 0.0535,-0.0326 0.1263,-0.0573 0.2245,-0.0744 0.0952,-0.0169 0.2187,-0.0298 0.3734,-0.0419 0.1455,-0.0113 0.2663,-0.0176 0.363,-0.0157 0.0997,0.002 0.1755,0.0148 0.2334,0.0387 0.0579,0.024 0.0974,0.0525 0.1246,0.082 0.0275,0.0326 0.043,0.0724 0.047,0.1227 z m 12.869,-5.0293 c 0.0994,0.4267 0.1095,0.8255 0.0265,1.1944 -0.0822,0.3719 -0.2536,0.703 -0.515,1.0033 -0.2591,0.2967 -0.609,0.5594 -1.0472,0.7845 -0.4413,0.2257 -0.9718,0.4108 -1.5913,0.5552 -0.1935,0.045 -0.3839,0.0894 -0.566,0.1286 -0.185,0.0399 -0.3648,0.0752 -0.5362,0.1055 -0.1744,0.0309 -0.3465,0.0581 -0.5186,0.0852 -0.1684,0.0296 -0.3413,0.0536 -0.5087,0.0732 -0.2459,0.0249 -0.4368,-0.0147 -0.5787,-0.1175 -0.1418,-0.103 -0.2436,-0.2799 -0.3023,-0.5315 l -1.6232,-6.9674 c -0.0572,-0.2455 -0.0471,-0.4485 0.031,-0.6058 0.078,-0.1574 0.2294,-0.2735 0.4473,-0.3502 0.1499,-0.0543 0.3095,-0.1077 0.482,-0.1608 0.17,-0.0493 0.3455,-0.1032 0.5277,-0.1553 0.1822,-0.0522 0.3682,-0.102 0.5632,-0.1539 0.192,-0.0512 0.3878,-0.1 0.5903,-0.1472 0.5742,-0.1338 1.0814,-0.2001 1.5206,-0.2022 0.4423,-0.003 0.8228,0.0575 1.1437,0.1769 0.3217,0.1224 0.5801,0.3017 0.776,0.5408 0.1959,0.2391 0.3339,0.5305 0.4147,0.8774 0.1059,0.4542 0.0758,0.8722 -0.0872,1.2532 -0.1637,0.3779 -0.4636,0.6904 -0.8969,0.937 0.6126,-0.01 1.1104,0.1296 1.4903,0.4197 0.3775,0.2939 0.6307,0.7106 0.758,1.2569 z m -2.6336,-3.3439 c -0.0457,-0.1964 -0.1228,-0.363 -0.2288,-0.5033 -0.1082,-0.1365 -0.2539,-0.2418 -0.4421,-0.3112 -0.1882,-0.0694 -0.4184,-0.0999 -0.6882,-0.0953 -0.269,0.008 -0.5868,0.0526 -0.9555,0.1385 -0.278,0.0648 -0.5305,0.1301 -0.7566,0.1989 -0.2292,0.0696 -0.4183,0.1331 -0.5749,0.1857 l 0.5842,2.5077 1.49,-0.3472 c 0.6106,-0.1422 1.0496,-0.3642 1.3193,-0.6698 0.2698,-0.3055 0.3527,-0.6743 0.2526,-1.104 z m 1.1335,3.7161 c -0.0558,-0.2394 -0.1475,-0.4413 -0.2713,-0.6034 -0.1245,-0.1652 -0.2925,-0.2846 -0.4987,-0.3627 -0.2092,-0.0775 -0.4597,-0.113 -0.755,-0.1089 -0.2917,0.007 -0.6313,0.0532 -1.0151,0.1427 l -1.4236,0.3316 0.6679,2.8668 c 0.1161,-0.008 0.2368,-0.0228 0.3599,-0.0418 0.1231,-0.019 0.2491,-0.0387 0.3782,-0.059 0.1291,-0.0204 0.2544,-0.0431 0.3828,-0.0666 0.1283,-0.0234 0.247,-0.0478 0.3527,-0.0724 0.3839,-0.0894 0.7024,-0.1992 0.958,-0.3332 0.2562,-0.1309 0.4563,-0.2843 0.6069,-0.4585 0.1476,-0.1736 0.2434,-0.3641 0.2814,-0.5704 0.0373,-0.2093 0.0302,-0.431 -0.0241,-0.6642 z m 11.0217,-1.0115 c 0.0142,0.0418 0.0158,0.0846 0.003,0.1254 -0.0113,0.0438 -0.0374,0.0827 -0.0832,0.1215 -0.0428,0.038 -0.1112,0.0779 -0.1982,0.1208 -0.087,0.043 -0.1995,0.088 -0.3376,0.135 -0.138,0.047 -0.2546,0.0801 -0.3497,0.0992 -0.0952,0.0191 -0.1766,0.0302 -0.2396,0.0283 -0.0658,-8e-4 -0.1132,-0.0147 -0.1488,-0.0425 -0.0357,-0.0278 -0.0597,-0.0596 -0.0739,-0.1013 l -1.5427,-4.5285 c -0.0783,-0.2297 -0.1506,-0.4614 -0.2202,-0.704 -0.0685,-0.2397 -0.1321,-0.4744 -0.1927,-0.7101 -0.0519,0.2807 -0.1215,0.5575 -0.2,0.8372 -0.0824,0.2777 -0.1648,0.5556 -0.2482,0.8303 l -1.7264,5.6821 c -0.0249,0.0617 -0.0469,0.1125 -0.067,0.1593 -0.0202,0.0468 -0.0521,0.0876 -0.092,0.1246 -0.0428,0.0379 -0.0995,0.0738 -0.1727,0.1088 -0.0704,0.0339 -0.1634,0.0689 -0.2721,0.106 -0.1264,0.043 -0.2341,0.073 -0.3175,0.0881 -0.0863,0.0161 -0.156,0.0232 -0.2101,0.0184 -0.0571,-0.004 -0.1015,-0.0188 -0.1343,-0.0476 -0.0327,-0.0288 -0.0537,-0.0616 -0.068,-0.1033 l -2.6869,-7.8875 c -0.0142,-0.0417 -0.0176,-0.0805 -0.009,-0.1234 0.008,-0.0428 0.0364,-0.0856 0.0852,-0.1255 0.0447,-0.0419 0.112,-0.0848 0.203,-0.1258 0.088,-0.0399 0.1986,-0.081 0.3337,-0.127 0.2762,-0.0941 0.4742,-0.1382 0.5923,-0.1285 0.118,0.01 0.1933,0.0573 0.2228,0.1439 l 1.5518,4.5552 c 0.0772,0.2268 0.1486,0.4555 0.213,0.6832 0.0655,0.2308 0.1261,0.4565 0.1846,0.6863 0.056,-0.2688 0.118,-0.5296 0.1799,-0.7904 0.06,-0.2569 0.1358,-0.5158 0.2194,-0.7706 l 1.7491,-5.7597 c 0.0161,-0.0588 0.0381,-0.1095 0.0651,-0.1554 0.027,-0.0458 0.0619,-0.0876 0.1116,-0.1246 0.0458,-0.0389 0.1064,-0.0728 0.1797,-0.1078 0.0704,-0.034 0.1653,-0.0729 0.2857,-0.114 0.1204,-0.041 0.2253,-0.0701 0.3106,-0.0891 0.0882,-0.0201 0.1579,-0.0272 0.216,-0.0204 0.0552,0.008 0.0995,0.0227 0.1323,0.0516 0.0327,0.0287 0.0548,0.0645 0.071,0.1123 z m 9.0605,-4.0726 c 0.0209,0.046 0.0265,0.0884 0.0182,0.1302 -0.01,0.039 -0.0304,0.083 -0.0708,0.1291 -0.0417,0.0432 -0.1017,0.0913 -0.1869,0.1439 -0.0823,0.0512 -0.1899,0.107 -0.3227,0.1674 -0.1413,0.0642 -0.2568,0.1099 -0.3497,0.1382 -0.0956,0.0296 -0.1712,0.0432 -0.2312,0.0463 -0.0613,1e-4 -0.1082,-0.0131 -0.1439,-0.0315 -0.0369,-0.0214 -0.0651,-0.0535 -0.086,-0.0994 l -1.5089,-3.3195 -3.78,1.7183 1.5089,3.3195 c 0.0209,0.0459 0.0265,0.0883 0.0183,0.1302 -0.01,0.0389 -0.0304,0.083 -0.0709,0.1291 -0.0417,0.0432 -0.1017,0.0912 -0.1869,0.1438 -0.0823,0.0513 -0.1927,0.1083 -0.3312,0.1713 -0.1356,0.0617 -0.2483,0.106 -0.3411,0.1343 -0.0957,0.0297 -0.1741,0.0446 -0.2341,0.0476 -0.0641,0.001 -0.1138,-0.0106 -0.1467,-0.0302 -0.0341,-0.0227 -0.0596,-0.056 -0.0804,-0.102 l -3.4404,-7.5684 c -0.0209,-0.0459 -0.0294,-0.087 -0.024,-0.1276 0.007,-0.0377 0.0305,-0.0831 0.0724,-0.1333 0.0391,-0.0489 0.1019,-0.0982 0.1884,-0.1479 0.0837,-0.0484 0.1925,-0.1014 0.3281,-0.1631 0.1385,-0.0629 0.2528,-0.1114 0.3443,-0.1426 0.0943,-0.0325 0.17,-0.0461 0.2325,-0.0434 0.0626,0.003 0.1096,0.016 0.1452,0.0344 0.0369,0.0213 0.0652,0.0535 0.086,0.0994 l 1.3995,3.0784 3.78,-1.7183 -1.3995,-3.0784 c -0.0208,-0.046 -0.0264,-0.0884 -0.0182,-0.1302 0.01,-0.039 0.0304,-0.0831 0.0695,-0.132 0.0391,-0.0489 0.0992,-0.097 0.1856,-0.1467 0.0837,-0.0484 0.1954,-0.1027 0.3367,-0.1669 0.1327,-0.0603 0.2442,-0.1075 0.3357,-0.1387 0.0943,-0.0325 0.1699,-0.0461 0.2325,-0.0434 0.0626,0.003 0.1095,0.0159 0.1452,0.0344 0.0369,0.0213 0.0652,0.0534 0.0861,0.0993 z m 7.7275,-4.4839 c 0.0363,0.0628 0.0432,0.1242 0.0218,0.1803 -0.0241,0.0576 -0.0679,0.112 -0.1337,0.1719 -0.0631,0.0582 -0.1659,0.1285 -0.3083,0.2108 -0.1343,0.0776 -0.2492,0.1331 -0.3393,0.1633 -0.09,0.0302 -0.1618,0.0425 -0.2183,0.0315 -0.0566,-0.011 -0.1022,-0.0465 -0.14,-0.1121 l -0.4162,-0.7204 c -0.1151,0.5142 -0.3077,0.9749 -0.5821,1.3809 -0.2759,0.4033 -0.6254,0.7289 -1.05,0.9742 -0.3735,0.2158 -0.7404,0.3623 -1.0981,0.4379 -0.3577,0.0757 -0.6992,0.0801 -1.0188,0.0171 -0.3194,-0.0629 -0.62,-0.1986 -0.8943,-0.4004 -0.2759,-0.2046 -0.5132,-0.4788 -0.7134,-0.8254 -0.235,-0.4066 -0.3577,-0.8052 -0.3656,-1.1973 -0.0122,-0.3933 0.0781,-0.7767 0.271,-1.1502 0.1901,-0.3719 0.4769,-0.7377 0.8608,-1.0906 0.3839,-0.3528 0.8527,-0.6892 1.4035,-1.0074 l 0.9781,-0.5651 -0.3247,-0.5621 c -0.1593,-0.2756 -0.3307,-0.5041 -0.5117,-0.6871 -0.1821,-0.1787 -0.3759,-0.3033 -0.5868,-0.3707 -0.211,-0.0673 -0.4391,-0.0775 -0.6843,-0.0305 -0.2468,0.0443 -0.5199,0.1548 -0.8182,0.3271 -0.3197,0.1847 -0.5852,0.389 -0.7921,0.6141 -0.2095,0.2266 -0.3837,0.4401 -0.5193,0.6458 -0.1355,0.2057 -0.2479,0.3835 -0.3312,0.5371 -0.0806,0.1521 -0.1552,0.2462 -0.217,0.2819 -0.043,0.0249 -0.0869,0.0357 -0.1291,0.0309 -0.0433,-5e-4 -0.089,-0.0177 -0.1385,-0.0474 -0.0478,-0.0269 -0.0955,-0.0722 -0.1441,-0.1315 -0.0501,-0.062 -0.0965,-0.1298 -0.1438,-0.2117 -0.0757,-0.131 -0.1291,-0.2421 -0.1544,-0.3294 -0.0253,-0.0872 -0.0222,-0.1873 0.008,-0.2959 0.0304,-0.1086 0.1067,-0.2618 0.2234,-0.4567 0.1185,-0.1922 0.2695,-0.3959 0.4496,-0.6054 0.1788,-0.2053 0.3882,-0.4136 0.6269,-0.6207 0.2361,-0.2055 0.4933,-0.3869 0.7647,-0.5437 0.5079,-0.2934 0.9736,-0.486 1.3988,-0.5752 0.4252,-0.0891 0.8136,-0.0805 1.1648,0.0187 0.3512,0.0991 0.6721,0.2887 0.9654,0.5668 0.2934,0.2782 0.5714,0.6417 0.83,1.0892 z m -3.1942,-2.5513 -1.1098,0.6411 c -0.3547,0.205 -0.6464,0.4135 -0.8735,0.6284 -0.2259,0.2106 -0.39,0.4292 -0.4952,0.6501 -0.1027,0.2194 -0.147,0.4343 -0.1326,0.6516 0.0172,0.2158 0.0888,0.4328 0.215,0.6511 0.2159,0.3738 0.5033,0.6046 0.8648,0.6905 0.3615,0.086 0.7513,0.0101 1.1731,-0.2337 0.3386,-0.1956 0.6052,-0.4661 0.793,-0.8111 0.1893,-0.3423 0.3395,-0.7895 0.4496,-1.3371 z M 298.5192,65.5699 c 0.1716,0.3335 0.2883,0.6634 0.3485,0.9868 0.0588,0.3277 0.0709,0.6405 0.0337,0.9468 -0.0388,0.3035 -0.1227,0.5949 -0.2505,0.8768 -0.1292,0.2792 -0.2994,0.5476 -0.5121,0.8024 -0.2126,0.2548 -0.4593,0.4917 -0.7387,0.7064 -0.2807,0.219 -0.6193,0.4287 -1.02,0.635 l -2.7768,1.4295 c -0.1261,0.0649 -0.2683,0.0849 -0.4236,0.0585 -0.1568,-0.0291 -0.2893,-0.1488 -0.3989,-0.3617 l -4.8784,-9.4765 c -0.1096,-0.213 -0.13,-0.3903 -0.0627,-0.5349 0.0688,-0.1417 0.1677,-0.2458 0.2937,-0.3107 l 2.4154,-1.2434 c 0.6361,-0.3274 1.1875,-0.5369 1.6559,-0.6255 0.4655,-0.0873 0.8954,-0.0853 1.2855,0.0046 0.3901,0.0898 0.7403,0.2675 1.0492,0.5303 0.309,0.2628 0.571,0.6064 0.7873,1.0267 0.1299,0.2522 0.2231,0.509 0.2825,0.7691 0.0567,0.2614 0.0766,0.5206 0.0585,0.7745 -0.0167,0.2567 -0.073,0.5055 -0.1744,0.7491 -0.1,0.2464 -0.2397,0.4778 -0.419,0.6942 0.3203,-0.094 0.6426,-0.1358 0.9698,-0.1199 0.3243,0.0173 0.6409,0.0883 0.9469,0.2143 0.3031,0.1275 0.5872,0.3144 0.8508,0.558 0.2651,0.2464 0.4913,0.5482 0.6774,0.9096 z m -4.5676,-3.6673 c -0.1327,-0.2578 -0.2889,-0.4716 -0.4671,-0.6457 -0.1768,-0.1713 -0.3798,-0.2901 -0.6089,-0.3565 -0.2291,-0.0663 -0.4843,-0.0732 -0.7713,-0.0247 -0.2855,0.0513 -0.6308,0.1793 -1.037,0.3885 l -1.4599,0.7515 1.7742,3.4465 1.6084,-0.828 c 0.3671,-0.1889 0.6368,-0.388 0.8147,-0.6001 0.1737,-0.2135 0.2923,-0.4376 0.3585,-0.6737 0.0621,-0.2376 0.0733,-0.4844 0.0294,-0.7347 -0.041,-0.2519 -0.1228,-0.4933 -0.241,-0.7231 z m 3.1314,4.513 c -0.163,-0.3166 -0.3577,-0.5708 -0.5826,-0.7599 -0.2249,-0.189 -0.4773,-0.3143 -0.7558,-0.3801 -0.2812,-0.0644 -0.5856,-0.0636 -0.9245,0.001 -0.3348,0.0659 -0.7262,0.2143 -1.1689,0.4422 l -1.6897,0.8699 1.93,3.749 2.0511,-1.0558 c 0.3222,-0.1659 0.5851,-0.3508 0.7871,-0.5505 0.202,-0.1998 0.353,-0.4228 0.4601,-0.6693 0.1042,-0.2451 0.1504,-0.5064 0.1387,-0.7839 -0.0117,-0.2776 -0.0926,-0.5656 -0.2455,-0.8626 z m 11.9112,-1.4749 c 0.0162,0.0411 0.0197,0.0838 0.009,0.1253 -0.01,0.0445 -0.0342,0.0848 -0.0787,0.1262 -0.0417,0.0403 -0.1092,0.084 -0.1954,0.1317 -0.0861,0.0477 -0.198,0.0989 -0.3357,0.1535 -0.1377,0.0546 -0.2542,0.0941 -0.3497,0.1184 -0.0955,0.0243 -0.1774,0.0399 -0.2413,0.0414 -0.0667,0.0028 -0.1152,-0.0085 -0.1526,-0.0343 -0.0374,-0.0259 -0.063,-0.0564 -0.0793,-0.0974 l -1.764,-4.4469 c -0.0895,-0.2256 -0.1731,-0.4535 -0.2543,-0.6925 -0.0801,-0.236 -0.1549,-0.4674 -0.2268,-0.7 -0.0401,0.2838 -0.0982,0.5645 -0.1652,0.8487 -0.071,0.2825 -0.142,0.565 -0.2142,0.8445 l -1.4943,5.78 c -0.0224,0.0632 -0.0425,0.1152 -0.0608,0.1631 -0.0182,0.048 -0.0488,0.0906 -0.0875,0.1297 -0.0417,0.0403 -0.0974,0.0793 -0.1701,0.1183 -0.0697,0.0378 -0.1623,0.0779 -0.2707,0.1209 -0.126,0.05 -0.2337,0.086 -0.3175,0.1056 -0.0867,0.0209 -0.1569,0.0318 -0.212,0.0299 -0.0578,-7e-4 -0.1035,-0.0132 -0.1379,-0.0402 -0.0345,-0.027 -0.0572,-0.0587 -0.0735,-0.0997 l -3.0724,-7.7454 c -0.0163,-0.041 -0.0214,-0.0797 -0.0149,-0.123 0.007,-0.0433 0.033,-0.0877 0.0806,-0.1303 0.0434,-0.0443 0.1096,-0.091 0.1999,-0.1369 0.0874,-0.0448 0.1975,-0.0919 0.3323,-0.1454 0.2753,-0.1092 0.4739,-0.1642 0.5938,-0.161 0.12,0.0033 0.1983,0.0468 0.232,0.1318 l 1.7744,4.4732 c 0.0883,0.2227 0.1708,0.4476 0.2463,0.672 0.0765,0.2273 0.1479,0.4499 0.2175,0.6766 0.0446,-0.272 0.0957,-0.5364 0.1468,-0.8008 0.0493,-0.2603 0.1144,-0.5234 0.1878,-0.7831 l 1.5138,-5.8589 c 0.0136,-0.0597 0.0336,-0.1117 0.059,-0.1591 0.0253,-0.0473 0.0587,-0.0911 0.1074,-0.1308 0.0446,-0.0414 0.1044,-0.0787 0.1771,-0.1177 0.0697,-0.0378 0.1641,-0.082 0.2842,-0.1297 0.1201,-0.0476 0.2249,-0.0824 0.3104,-0.1062 0.0885,-0.0249 0.1587,-0.0358 0.2179,-0.0321 0.0561,0.0048 0.1017,0.0172 0.1362,0.0443 0.0345,0.027 0.0583,0.0616 0.0769,0.1085 z m 9.8504,-2.459 c 0.0114,0.0491 0.008,0.0918 -0.008,0.1314 -0.0174,0.0364 -0.0471,0.0756 -0.0965,0.113 -0.0503,0.0344 -0.1197,0.07 -0.215,0.1052 -0.0923,0.0344 -0.2106,0.0684 -0.3548,0.102 -0.1535,0.0358 -0.2777,0.0582 -0.3758,0.0681 -0.101,0.0107 -0.179,0.0094 -0.2392,8e-4 -0.061,-0.0117 -0.105,-0.0338 -0.1367,-0.0588 -0.0324,-0.028 -0.054,-0.0651 -0.0654,-0.1142 l -0.8274,-3.5512 -4.1067,0.9568 0.8274,3.5512 c 0.0114,0.0491 0.008,0.0918 -0.008,0.1314 -0.0174,0.0364 -0.0471,0.0756 -0.0966,0.113 -0.0502,0.0344 -0.1196,0.07 -0.215,0.1051 -0.0922,0.0345 -0.2136,0.0692 -0.364,0.1043 -0.1473,0.0343 -0.2684,0.0561 -0.3665,0.0659 -0.1011,0.0107 -0.1821,0.0101 -0.2423,0.0015 -0.0641,-0.011 -0.1111,-0.0324 -0.1398,-0.058 -0.0293,-0.0288 -0.0478,-0.0665 -0.0592,-0.1157 l -1.8864,-8.0968 c -0.0115,-0.0491 -0.0115,-0.0912 0.002,-0.13 0.0144,-0.0357 0.0471,-0.0756 0.099,-0.1169 0.0488,-0.0404 0.1213,-0.0767 0.2174,-0.1088 0.093,-0.0314 0.2119,-0.0624 0.3593,-0.0967 0.1504,-0.035 0.2739,-0.0605 0.3711,-0.0735 0.1004,-0.0137 0.1784,-0.0124 0.24,0.0023 0.0617,0.0148 0.1057,0.0369 0.1374,0.0618 0.0325,0.0281 0.054,0.0651 0.0655,0.1142 l 0.7673,3.2934 4.1067,-0.9568 -0.7673,-3.2933 c -0.0114,-0.0492 -0.008,-0.0919 0.008,-0.1314 0.0174,-0.0364 0.0471,-0.0757 0.0959,-0.1162 0.0488,-0.0405 0.1182,-0.076 0.2143,-0.1082 0.093,-0.0313 0.215,-0.063 0.3685,-0.0988 0.1443,-0.0336 0.2647,-0.0583 0.3619,-0.0713 0.1004,-0.0137 0.1784,-0.0124 0.2401,0.0023 0.0616,0.0148 0.1056,0.0369 0.1374,0.0618 0.0324,0.0281 0.0539,0.0651 0.0654,0.1142 z m 10.01,-1.5508 c 0.006,0.05 -8e-4,0.0922 -0.0214,0.1299 -0.021,0.0344 -0.0544,0.0705 -0.1074,0.1028 -0.0535,0.0291 -0.1261,0.0576 -0.2245,0.083 -0.0953,0.025 -0.2163,0.047 -0.3632,0.066 -0.1563,0.0202 -0.2822,0.0301 -0.3807,0.0301 -0.1016,4e-4 -0.179,-0.0087 -0.2381,-0.0233 -0.0595,-0.0177 -0.101,-0.0441 -0.1301,-0.0721 -0.0294,-0.0312 -0.0472,-0.0702 -0.0536,-0.1202 l -0.4671,-3.6163 -4.182,0.5402 0.4671,3.6163 c 0.007,0.05 -8e-4,0.0922 -0.0214,0.1298 -0.0209,0.0345 -0.0544,0.0706 -0.1075,0.1029 -0.0533,0.0291 -0.126,0.0576 -0.2244,0.083 -0.0953,0.025 -0.2194,0.0474 -0.3726,0.0671 -0.15,0.0195 -0.2727,0.029 -0.3712,0.0289 -0.1017,5e-4 -0.1823,-0.0082 -0.2413,-0.0228 -0.0626,-0.0173 -0.1073,-0.0433 -0.1332,-0.0717 -0.0264,-0.0316 -0.041,-0.071 -0.0474,-0.121 l -1.0651,-8.2453 c -0.006,-0.0499 -0.002,-0.0918 0.0152,-0.129 0.0178,-0.0341 0.0544,-0.0706 0.1101,-0.1064 0.0526,-0.0354 0.1284,-0.0642 0.2272,-0.0865 0.0957,-0.0219 0.2172,-0.0408 0.3672,-0.0602 0.1531,-0.0198 0.2786,-0.0328 0.3767,-0.0359 0.1012,-0.0035 0.1786,0.0055 0.2385,0.0264 0.0599,0.0208 0.1015,0.0472 0.1305,0.0753 0.0295,0.0311 0.0472,0.0702 0.0537,0.1201 l 0.4332,3.3538 4.1819,-0.5402 -0.4332,-3.3537 c -0.006,-0.05 9e-4,-0.0923 0.0214,-0.1299 0.021,-0.0345 0.0545,-0.0706 0.1071,-0.106 0.0526,-0.0353 0.1252,-0.0638 0.224,-0.0861 0.0957,-0.0219 0.2203,-0.0412 0.3766,-0.0614 0.1469,-0.0189 0.2692,-0.0315 0.3673,-0.0347 0.1012,-0.0035 0.1786,0.0056 0.2386,0.0264 0.0598,0.0209 0.1014,0.0473 0.1304,0.0753 0.0295,0.0311 0.0472,0.0702 0.0537,0.1202 z M 341.47,60.3897 c 10e-4,0.0504 -0.0101,0.0917 -0.0343,0.1271 -0.0244,0.0322 -0.0613,0.0646 -0.1173,0.0914 -0.0561,0.0236 -0.1312,0.0446 -0.2317,0.0599 -0.0973,0.0153 -0.2231,0.0251 -0.3775,0.0293 -0.1512,0.0041 -0.2743,0.0012 -0.3723,-0.0087 -0.1011,-0.0099 -0.1804,-0.0266 -0.2377,-0.0471 -0.0605,-0.0236 -0.1024,-0.0539 -0.1253,-0.0849 -0.023,-0.0341 -0.0335,-0.0747 -0.0349,-0.1251 l -0.2273,-8.3106 c -0.001,-0.0504 0.007,-0.0916 0.028,-0.1269 0.0212,-0.0321 0.0613,-0.0647 0.1204,-0.0947 0.0559,-0.0299 0.1342,-0.051 0.2347,-0.0632 0.0974,-0.0121 0.2202,-0.0186 0.3714,-0.0228 0.1544,-0.0042 0.2805,-0.0044 0.3784,0.0023 0.101,0.0067 0.1772,0.0236 0.2347,0.0503 0.0574,0.0269 0.0961,0.0573 0.1222,0.0881 0.0261,0.034 0.0398,0.0746 0.0412,0.125 z m -8.3885,-5.1585 c 0.2263,-0.0251 0.4558,-0.0471 0.6856,-0.0629 0.2297,-0.0158 0.4785,-0.0257 0.7494,-0.0331 0.6584,-0.018 1.221,0.0328 1.694,0.1523 0.4699,0.1196 0.8594,0.298 1.1717,0.5354 0.3091,0.2375 0.5408,0.5243 0.692,0.8638 0.1511,0.3364 0.2309,0.7189 0.2424,1.141 0.0116,0.4253 -0.0531,0.8243 -0.1942,1.197 -0.1411,0.3728 -0.3687,0.7005 -0.6826,0.9802 -0.317,0.2798 -0.7239,0.5054 -1.2237,0.6735 -0.5029,0.1714 -1.1056,0.2667 -1.8144,0.2861 -0.1639,0.0045 -0.3308,0.009 -0.4979,0.0105 -0.1639,0.0013 -0.3278,-5e-4 -0.4888,-0.0056 -0.1609,-0.005 -0.3188,-0.0133 -0.4767,-0.0216 -0.1577,-0.0052 -0.3157,-0.0166 -0.4769,-0.0311 -0.2591,-0.0245 -0.4504,-0.1012 -0.577,-0.2333 -0.1266,-0.1321 -0.1952,-0.3383 -0.2028,-0.6155 l -0.2112,-7.7215 c -10e-4,-0.0504 0.007,-0.0916 0.028,-0.1269 0.0213,-0.0321 0.0613,-0.0647 0.1204,-0.0947 0.0559,-0.0299 0.1342,-0.051 0.2284,-0.063 0.0974,-0.0121 0.2139,-0.0185 0.3588,-0.0224 0.2962,-0.0081 0.5015,0.0084 0.6194,0.0524 0.1147,0.0442 0.1734,0.1151 0.1761,0.2127 z m 3.6502,2.7439 c -0.007,-0.2552 -0.0511,-0.4841 -0.1355,-0.6899 -0.0812,-0.2027 -0.2121,-0.3757 -0.3893,-0.5158 -0.1804,-0.1401 -0.4135,-0.2472 -0.7054,-0.315 -0.2919,-0.0708 -0.6458,-0.0989 -1.0616,-0.0875 -0.2521,0.0068 -0.485,0.0195 -0.6989,0.038 -0.2139,0.0184 -0.4245,0.04 -0.6256,0.0644 l 0.0877,3.207 c 0.2148,0.0162 0.4265,0.0325 0.6381,0.0456 0.2084,0.0132 0.4638,0.0157 0.7631,0.0075 0.7498,-0.0205 1.2938,-0.1867 1.6353,-0.4955 0.3415,-0.3089 0.5066,-0.7296 0.4921,-1.2588 z m 14.9389,3.4824 c -0.005,0.0437 -0.023,0.0829 -0.0523,0.1141 -0.0298,0.0344 -0.0708,0.0579 -0.1298,0.0727 -0.0559,0.0153 -0.1361,0.0211 -0.2346,0.0215 -0.0984,4e-4 -0.2212,-0.0086 -0.3681,-0.0269 -0.147,-0.0184 -0.2682,-0.0399 -0.3636,-0.0646 -0.0954,-0.0245 -0.1747,-0.0503 -0.2314,-0.0797 -0.0598,-0.0297 -0.097,-0.0629 -0.1173,-0.1035 -0.0203,-0.0407 -0.0281,-0.0798 -0.0227,-0.1236 l 0.5933,-4.747 c 0.0301,-0.2408 0.0664,-0.4809 0.1102,-0.7295 0.0434,-0.2454 0.0891,-0.4843 0.1379,-0.7227 -0.1716,0.2294 -0.3576,0.4476 -0.5531,0.6645 -0.1981,0.2135 -0.3963,0.4269 -0.5941,0.6372 l -4.091,4.3481 c -0.05,0.0446 -0.0926,0.0805 -0.1317,0.1137 -0.0391,0.0333 -0.0864,0.0559 -0.1392,0.0716 -0.0559,0.0152 -0.1235,0.0227 -0.206,0.0219 -0.0793,-4e-4 -0.1798,-0.0098 -0.2955,-0.0243 -0.1345,-0.0168 -0.2463,-0.0371 -0.3292,-0.0602 -0.0859,-0.0234 -0.1528,-0.0476 -0.2001,-0.0758 -0.0504,-0.0285 -0.0844,-0.0613 -0.1016,-0.1016 -0.0172,-0.0403 -0.0219,-0.079 -0.0165,-0.1228 l 1.0333,-8.2682 c 0.005,-0.0438 0.0196,-0.0801 0.0462,-0.115 0.0265,-0.0347 0.0711,-0.0609 0.1333,-0.0754 0.0593,-0.018 0.1399,-0.027 0.2411,-0.0239 0.0982,0.0028 0.2174,0.0145 0.3612,0.0325 0.294,0.0367 0.4945,0.084 0.5981,0.1446 0.1036,0.0606 0.1513,0.1364 0.14,0.2271 l -0.5968,4.7752 c -0.0297,0.2377 -0.0656,0.4746 -0.1075,0.7075 -0.0422,0.2361 -0.0867,0.4656 -0.1348,0.6978 0.17,-0.217 0.342,-0.4241 0.514,-0.6313 0.1684,-0.2045 0.3522,-0.4038 0.5414,-0.5961 l 4.1461,-4.4079 c 0.0406,-0.0458 0.0832,-0.0817 0.1282,-0.111 0.045,-0.0294 0.0953,-0.0517 0.1571,-0.063 0.0591,-0.0149 0.1294,-0.0187 0.2119,-0.018 0.0794,4e-4 0.1833,0.0071 0.3115,0.0231 0.1283,0.016 0.2369,0.0359 0.3233,0.0562 0.0895,0.0208 0.1563,0.045 0.2064,0.0767 0.0469,0.0312 0.0809,0.064 0.0981,0.1043 0.0172,0.0403 0.0215,0.0821 0.0152,0.1322 z m 0.7119,-12.2531 c -0.0434,0.3471 -0.1376,0.6688 -0.2787,0.9592 -0.1415,0.2936 -0.3408,0.5419 -0.5945,0.742 -0.2537,0.2001 -0.5672,0.3452 -0.9401,0.432 -0.3698,0.0872 -0.8096,0.0989 -1.3162,0.0356 -0.4659,-0.0583 -0.8651,-0.1685 -1.2008,-0.3279 -0.339,-0.1599 -0.6122,-0.3624 -0.8193,-0.6106 -0.2076,-0.2451 -0.3531,-0.5301 -0.4328,-0.8576 -0.0798,-0.3276 -0.0954,-0.6852 -0.0466,-1.0762 0.008,-0.0625 0.0239,-0.1145 0.0508,-0.1524 0.0274,-0.041 0.0724,-0.0703 0.1349,-0.0879 0.059,-0.0149 0.1395,-0.0239 0.2349,-0.0247 0.0954,-8e-4 0.2119,0.0074 0.3464,0.0242 0.147,0.0184 0.265,0.0395 0.3475,0.0657 0.0856,0.0266 0.1481,0.0598 0.1884,0.0934 0.043,0.0371 0.0692,0.0817 0.0786,0.1337 0.01,0.0488 0.009,0.109 4e-4,0.1748 -0.0246,0.1969 -0.016,0.3822 0.0226,0.5554 0.0423,0.1704 0.1177,0.3291 0.2276,0.4667 0.1098,0.1376 0.2482,0.2502 0.4178,0.3413 0.1701,0.0879 0.3691,0.1477 0.6005,0.1766 0.2282,0.0286 0.4327,0.0192 0.6129,-0.025 0.1837,-0.0469 0.3456,-0.122 0.4827,-0.2287 0.1372,-0.1067 0.2463,-0.2424 0.3303,-0.4065 0.081,-0.1646 0.1353,-0.3452 0.1599,-0.5422 0.007,-0.0594 0.0203,-0.1118 0.0418,-0.1568 0.0215,-0.0449 0.0575,-0.0786 0.1083,-0.104 0.0473,-0.0226 0.1161,-0.0394 0.1993,-0.0449 0.0833,-0.0055 0.1967,0.0024 0.3343,0.0195 0.147,0.0184 0.2681,0.0399 0.3604,0.0641 0.0922,0.0243 0.165,0.0524 0.2216,0.0817 0.0532,0.032 0.0927,0.0719 0.1091,0.1184 0.0199,0.0438 0.0258,0.0985 0.018,0.1611 z m 14.9476,11.3562 c -0.188,0.6673 -0.4508,1.2514 -0.7914,1.7514 -0.3367,0.4977 -0.7369,0.8957 -1.1986,1.1979 -0.4647,0.3013 -0.9765,0.491 -1.5386,0.5684 -0.562,0.0774 -1.157,0.0276 -1.7819,-0.1484 -0.6522,-0.1837 -1.1865,-0.4489 -1.6038,-0.7924 -0.4172,-0.3434 -0.7219,-0.7731 -0.9155,-1.2827 -0.1898,-0.5119 -0.2707,-1.1077 -0.2408,-1.7835 0.0309,-0.6789 0.1692,-1.4487 0.4111,-2.3072 0.205,-0.728 0.4273,-1.389 0.6697,-1.9821 0.2394,-0.5939 0.4911,-1.1156 0.7539,-1.572 0.262,-0.4533 0.5277,-0.827 0.7972,-1.1211 0.2664,-0.2949 0.5193,-0.5183 0.7577,-0.6673 0.2392,-0.1519 0.4605,-0.2631 0.6706,-0.3349 0.2102,-0.0718 0.4359,-0.1293 0.6773,-0.1726 0.2414,-0.0433 0.5097,-0.066 0.801,-0.0657 0.2922,-0.0029 0.6144,0.0159 0.9712,0.0509 l 2.987,0.3341 c 0.1052,0.0099 0.1888,0.0269 0.2547,0.0488 0.0628,0.021 0.1084,0.0568 0.132,0.1125 0.0205,0.0549 0.0243,0.1345 0.008,0.2381 -0.0161,0.1035 -0.0493,0.2447 -0.0997,0.4237 -0.0334,0.1183 -0.0676,0.2167 -0.1028,0.2952 -0.0361,0.0815 -0.0761,0.1423 -0.1188,0.1892 -0.0449,0.043 -0.1023,0.0726 -0.1685,0.0867 -0.0684,0.0102 -0.151,0.0131 -0.2533,0.004 l -2.7859,-0.3036 c -0.2789,-0.0327 -0.5253,-0.053 -0.7409,-0.0549 -0.2177,-0.0057 -0.4138,0.0046 -0.5904,0.0269 -0.1756,0.0193 -0.3326,0.0536 -0.4732,0.0991 -0.1413,0.0486 -0.2887,0.1184 -0.4451,0.2086 -0.1533,0.091 -0.3031,0.2158 -0.4554,0.3727 -0.1483,0.1546 -0.2892,0.3409 -0.4256,0.5578 -0.1325,0.2148 -0.262,0.4533 -0.3822,0.7174 -0.1232,0.2632 -0.2486,0.5455 -0.3791,0.846 0.2523,-0.1516 0.5145,-0.2807 0.7808,-0.389 0.2654,-0.1053 0.537,-0.186 0.813,-0.2359 0.276,-0.05 0.5595,-0.0683 0.8465,-0.0529 0.2879,0.0124 0.5816,0.0623 0.882,0.147 0.5763,0.1623 1.0495,0.4004 1.4263,0.7129 0.374,0.3116 0.6541,0.6885 0.8332,1.122 0.1821,0.4344 0.2718,0.9181 0.2711,1.4548 -6e-4,0.5368 -0.0846,1.1025 -0.253,1.7001 z m -1.5639,-0.3064 c 0.1102,-0.3913 0.179,-0.7747 0.2031,-1.1509 0.0281,-0.3785 -0.002,-0.7243 -0.09,-1.0404 -0.0855,-0.3122 -0.2454,-0.593 -0.4732,-0.8307 -0.2298,-0.2416 -0.5465,-0.4192 -0.9469,-0.532 -0.2488,-0.0701 -0.4909,-0.1055 -0.7242,-0.1025 -0.2355,-9e-4 -0.4713,0.0342 -0.7165,0.1026 -0.2421,0.0693 -0.4928,0.1689 -0.7552,0.298 -0.2583,0.1269 -0.5422,0.286 -0.8506,0.4741 -0.0325,0.0923 -0.0672,0.2038 -0.1022,0.3282 -0.0351,0.1243 -0.071,0.2517 -0.1077,0.3821 -0.1803,0.6401 -0.299,1.2124 -0.3538,1.7208 -0.0588,0.5106 -0.042,0.9508 0.0507,1.3305 0.0906,0.3759 0.264,0.69 0.5204,0.9423 0.2533,0.2514 0.6003,0.4376 1.0402,0.5615 0.3852,0.1085 0.7493,0.1293 1.0924,0.0622 0.3461,-0.0662 0.6568,-0.2046 0.94,-0.4195 0.2801,-0.2157 0.5288,-0.5058 0.7444,-0.8642 0.2164,-0.3614 0.3941,-0.7828 0.5291,-1.2621 z m 8.5012,7.3731 c -0.0265,0.0675 -0.0706,0.1111 -0.1284,0.1291 -0.0608,0.0168 -0.1316,0.0161 -0.2206,0.0015 -0.0861,-0.0134 -0.207,-0.0506 -0.3625,-0.1116 -0.1467,-0.0575 -0.2636,-0.1134 -0.3447,-0.1655 -0.0811,-0.0521 -0.1365,-0.1009 -0.1637,-0.1522 -0.0273,-0.0513 -0.0283,-0.1092 -7e-4,-0.1797 l 0.3036,-0.7746 c -0.4789,0.2287 -0.9649,0.3632 -1.4598,0.3994 -0.4937,0.0333 -0.9729,-0.0395 -1.4365,-0.2211 -0.4079,-0.1599 -0.7569,-0.3576 -1.0441,-0.592 -0.2872,-0.2344 -0.508,-0.5003 -0.6616,-0.7907 -0.1536,-0.2904 -0.2378,-0.6111 -0.253,-0.9521 -0.0142,-0.3441 0.0512,-0.701 0.1973,-1.0736 0.1713,-0.4372 0.4077,-0.7812 0.712,-1.0309 0.3026,-0.2537 0.6625,-0.4207 1.0798,-0.5009 0.4143,-0.0813 0.8855,-0.0828 1.4081,10e-5 0.5226,0.083 1.0861,0.2429 1.6876,0.4786 l 1.0681,0.4186 0.2368,-0.6045 c 0.1162,-0.2963 0.1874,-0.5731 0.2166,-0.829 0.0252,-0.2542 2e-4,-0.484 -0.0809,-0.6918 -0.081,-0.2077 -0.2181,-0.3935 -0.4112,-0.5572 -0.192,-0.1666 -0.4528,-0.3128 -0.7785,-0.4405 -0.3492,-0.1368 -0.6793,-0.2188 -0.9884,-0.2418 -0.3121,-0.0241 -0.5913,-0.0286 -0.8399,-0.0075 -0.2485,0.021 -0.4602,0.043 -0.6344,0.0728 -0.1713,0.0311 -0.293,0.0308 -0.3605,0.0044 -0.0469,-0.0185 -0.0835,-0.0463 -0.1065,-0.0824 -0.0272,-0.0344 -0.0427,-0.0811 -0.0508,-0.1384 -0.009,-0.0543 -0.004,-0.1199 0.0122,-0.195 0.017,-0.0779 0.041,-0.1565 0.0755,-0.2445 0.0552,-0.1409 0.1089,-0.2519 0.1616,-0.3259 0.0527,-0.0741 0.1337,-0.1338 0.2387,-0.1773 0.105,-0.0434 0.2745,-0.0786 0.5025,-0.1077 0.227,-0.0261 0.4838,-0.0338 0.7636,-0.0223 0.2758,0.0133 0.5733,0.0487 0.8886,0.1079 0.3123,0.0581 0.619,0.1478 0.9154,0.264 0.5545,0.2173 1.0028,0.4641 1.3436,0.7432 0.3408,0.2791 0.5812,0.5899 0.7263,0.9278 0.1452,0.3378 0.1999,0.7079 0.167,1.1114 -0.0329,0.4034 -0.1427,0.8478 -0.3313,1.329 z m -0.0193,-4.0965 -1.2118,-0.4749 c -0.3874,-0.1518 -0.7374,-0.2518 -1.0514,-0.297 -0.3099,-0.0469 -0.5867,-0.0404 -0.828,0.014 -0.2384,0.0555 -0.4361,0.154 -0.5984,0.3003 -0.1593,0.1474 -0.285,0.3385 -0.377,0.5733 -0.1575,0.4019 -0.1567,0.7713 0.005,1.1089 0.1621,0.3378 0.47,0.5972 0.9306,0.7777 0.3698,0.1449 0.7528,0.1867 1.1444,0.1202 0.3905,-0.0636 0.8389,-0.223 1.341,-0.4764 z m 11.4111,4.7601 c -0.3305,0.6487 -0.6969,1.1941 -1.1006,1.6392 -0.3994,0.4438 -0.8276,0.7774 -1.2832,0.998 -0.4526,0.2221 -0.9313,0.3283 -1.4287,0.3189 -0.4975,-0.0094 -1.0052,-0.1444 -1.5191,-0.4063 -0.219,-0.1115 -0.4098,-0.237 -0.5736,-0.3736 -0.1653,-0.1408 -0.3106,-0.2998 -0.4417,-0.4868 -0.1297,-0.1828 -0.2465,-0.3909 -0.3476,-0.6228 -0.1054,-0.2306 -0.2048,-0.4935 -0.3041,-0.7845 l -1.8902,3.7093 c -0.0229,0.0449 -0.0527,0.0757 -0.0923,0.0979 -0.0397,0.0223 -0.0877,0.0332 -0.1497,0.0299 -0.0605,-0.0061 -0.1365,-0.0236 -0.232,-0.0582 -0.0929,-0.0331 -0.208,-0.0847 -0.3456,-0.1548 -0.1348,-0.0687 -0.2414,-0.1301 -0.3227,-0.1857 -0.0842,-0.057 -0.1458,-0.1097 -0.1863,-0.1551 -0.042,-0.0496 -0.0641,-0.0963 -0.0666,-0.14 -0.002,-0.0437 0.008,-0.0845 0.0306,-0.1295 l 5.2727,-10.3473 c 0.0257,-0.0505 0.0542,-0.0855 0.0868,-0.1078 0.0312,-0.0195 0.0792,-0.0305 0.1369,-0.0258 0.062,0.0033 0.1324,0.018 0.2153,0.0496 0.0801,0.0302 0.177,0.076 0.2865,0.1318 0.1151,0.0587 0.2092,0.1102 0.2807,0.1572 0.0687,0.0457 0.1219,0.094 0.1624,0.1394 0.0391,0.0482 0.0585,0.0935 0.0638,0.1315 0.004,0.0409 -0.008,0.0846 -0.0334,0.1351 l -0.5051,0.9912 c 0.342,-0.1158 0.6598,-0.205 0.9548,-0.2704 0.2937,-0.0625 0.5758,-0.0956 0.8437,-0.1007 0.2678,-0.005 0.5284,0.0182 0.7788,0.0751 0.2519,0.054 0.4993,0.1447 0.7464,0.2706 0.5363,0.2733 0.9383,0.609 1.2114,1.01 0.269,0.4023 0.4333,0.8433 0.4874,1.3272 0.0541,0.4838 0.0136,0.9937 -0.1216,1.5297 -0.1351,0.536 -0.3408,1.0714 -0.6141,1.6077 z m -1.4953,-0.5639 c 0.1932,-0.3791 0.3525,-0.7612 0.4738,-1.1451 0.1242,-0.3824 0.1833,-0.7484 0.186,-1.0937 -2e-4,-0.3468 -0.0767,-0.6616 -0.2282,-0.9475 -0.1514,-0.2859 -0.4048,-0.5175 -0.7558,-0.6964 -0.1769,-0.0901 -0.361,-0.1521 -0.5595,-0.1861 -0.1957,-0.0325 -0.4113,-0.0397 -0.6454,-0.0176 -0.2313,0.0236 -0.4925,0.078 -0.7778,0.166 -0.2855,0.0881 -0.6063,0.2111 -0.9571,0.3719 l -1.501,2.9455 c 0.1403,0.6481 0.3166,1.1765 0.5263,1.5911 0.2139,0.4132 0.5034,0.7128 0.8712,0.9002 0.3398,0.1732 0.6733,0.2405 1.002,0.1993 0.3287,-0.0412 0.6369,-0.16 0.9287,-0.3579 0.2919,-0.1979 0.5574,-0.4482 0.8049,-0.7536 0.2434,-0.304 0.4559,-0.6307 0.6319,-0.9761 z M 282.5791,201.1471 c 8.3704,-2.5721 6.8848,-11.2924 6.8073,-11.7178 l -9e-4,-0.003 -2e-4,-8e-4 2e-4,8e-4 -0.003,-0.0127 -0.002,-0.009 -0.003,-0.019 -10e-5,-9e-4 6e-4,-1e-4 c -0.0294,-0.1858 -1.3831,-8.3069 -15.0391,-6.067 -0.2252,0.8576 -0.6318,2.389 -1.1388,4.227 -0.3525,1.2786 -0.7494,2.6884 -1.1582,4.0894 -0.0828,0.2838 -0.1644,0.579 -0.2442,0.8755 l -3e-4,-1e-4 c -0.0855,0.3182 -0.1516,0.5711 -0.2155,0.817 l -2e-4,-1e-4 c -0.2256,0.8669 -0.4406,1.6926 -0.7193,2.5079 -0.2634,0.7709 -0.5857,1.5436 -1.0294,2.3519 0.4727,0.5264 1.251,1.2231 2.314,1.8675 0.8542,0.5178 1.8889,0.9991 3.0904,1.326 1.0645,0.2898 2.2608,0.4553 3.5795,0.4141 1.1606,-0.0363 2.4166,-0.2333 3.7622,-0.6467 z m 107.5856,-24.5633 c -0.0712,0.1401 -0.1385,0.2722 -0.1936,0.3832 l 8e-4,5e-4 -0.0745,0.1521 -0.048,0.1119 c -1.1252,2.6252 -1.7022,5.0949 -1.8247,7.3129 -0.1318,2.3854 0.2605,4.4791 1.0601,6.1594 0.3541,0.7448 0.7874,1.4058 1.2884,1.9712 0.5005,0.565 1.0697,1.0368 1.696,1.4032 0.6293,0.3684 1.3198,0.6331 2.059,0.7817 h 0.001 c 0.7244,0.1457 1.4985,0.1809 2.3112,0.0948 1.733,-0.1837 3.6399,-0.9129 5.6307,-2.287 1.8358,-1.2671 3.7414,-3.0817 5.6472,-5.5205 l 0.006,-0.01 0.009,-0.0132 0.0135,-0.0164 c 0.7233,-0.8753 1.3799,-1.8726 1.9736,-2.9615 0.5694,-1.0443 1.0789,-2.1687 1.5323,-3.3473 -0.8848,-0.0328 -1.7357,-0.0979 -2.5529,-0.1929 -0.982,-0.1141 -1.9288,-0.273 -2.8401,-0.4718 -2.3748,-0.5186 -4.4714,-1.3066 -6.3076,-2.2883 -2.0123,-1.0759 -3.7145,-2.3857 -5.1298,-3.8299 -1.2981,-1.3244 -2.3536,-2.7609 -3.1852,-4.2332 -0.9097,-1.6104 -1.5534,-3.2668 -1.9553,-4.8687 -0.3203,-1.2763 -0.4877,-2.5253 -0.5142,-3.6963 -0.0275,-1.21 0.0955,-2.3358 0.3544,-3.3222 0.3604,-2.0864 1.0742,-4.0103 2.0589,-5.7406 1.0445,-1.8351 2.3956,-3.4542 3.9543,-4.8196 1.6264,-1.4245 3.4796,-2.5714 5.4464,-3.3984 1.9569,-0.823 4.0288,-1.3305 6.1042,-1.4812 l 0.008,-0.004 0.0679,-0.004 c 1.0722,-0.0636 2.1241,-0.0405 3.1494,0.0731 1.0107,0.1121 1.9973,0.3126 2.9531,0.605 0.9414,0.2878 1.8502,0.6647 2.7201,1.1334 0.8528,0.4595 1.6713,1.0096 2.4495,1.6529 1.8401,1.5213 3.1754,3.4666 4.1099,5.6665 1.0524,2.4772 1.596,5.2765 1.7806,8.1542 0.1649,2.5719 0.0422,5.2131 -0.2584,7.7404 -0.3342,2.8096 -0.8883,5.4811 -1.511,7.7627 4.7677,-0.6943 8.6607,-2.2269 8.7632,-2.2674 l 0.004,-0.001 0.8596,-0.3362 0.3364,-0.1315 0.0831,0.3518 0.2069,0.8758 0.2295,0.9727 0.0832,0.3528 0.031,0.1318 -0.0761,0.114 -0.2058,0.3088 -0.002,0.003 -10e-5,3e-4 c -0.0572,0.0853 -1.1818,1.6991 -5.3591,2.8146 l 10e-5,5e-4 c -1.1654,0.355 -2.3114,0.6696 -3.4378,0.9457 -1.0793,0.2646 -2.1323,0.4909 -3.1588,0.6807 l -0.001,0.003 -10e-4,0.003 -0.0671,0.1517 v 0.001 c -0.7175,1.6001 -1.4424,3.1084 -2.2037,4.5393 -0.7619,1.4323 -1.5549,2.7766 -2.4062,4.044 -0.8605,1.2811 -1.7851,2.4908 -2.8021,3.6415 -1.0145,1.1477 -2.1197,2.2338 -3.3441,3.2702 -1.6167,1.3684 -3.4593,2.4324 -5.3987,3.197 -2.0534,0.8093 -4.2179,1.2853 -6.3396,1.4336 -2.1787,0.1522 -4.3217,-0.0424 -6.2638,-0.5766 -1.8029,-0.4958 -3.4339,-1.2849 -4.7622,-2.3611 l -1e-4,1e-4 -0.028,-0.0231 -0.089,-0.0733 -0.0734,-0.0604 c -0.8708,-0.7172 -1.6322,-1.4945 -2.2943,-2.3163 -0.7003,-0.8692 -1.2891,-1.7891 -1.7792,-2.7414 -0.3343,-0.6497 -0.6219,-1.3123 -0.8665,-1.9815 -0.1686,-0.4611 -0.3173,-0.9255 -0.4475,-1.3915 -0.2104,0.3456 -0.4394,0.704 -0.6881,1.0724 -0.4067,0.6027 -0.8604,1.2222 -1.363,1.8404 -0.9824,1.2088 -2.1598,2.4265 -3.5557,3.5362 -1.2006,0.9543 -2.5611,1.8277 -4.095,2.5443 -6.2097,2.9011 -8.8596,0.5413 -9.8664,-3.0728 -0.9142,-3.2819 -0.4127,-7.6161 -0.0553,-9.8091 -1.7272,0.0847 -4.7261,0.232 -6.9787,0.3436 -1.5238,0.0755 -2.708,0.1351 -2.9237,0.1479 -0.0735,0.004 0.002,0.6874 -0.1058,1.7315 -0.1257,1.2182 -0.2945,2.8504 -0.6642,4.5172 -0.2824,1.2744 -0.5662,2.5533 -0.8021,3.5746 -0.2556,1.1066 -0.4935,2.0865 -0.6939,2.805 -0.1179,0.4233 -0.5,0.7649 -1.0469,1.0248 -0.5473,0.2603 -1.2767,0.4483 -2.0662,0.5584 -0.3987,0.0555 -0.8204,0.0991 -1.2396,0.1282 -0.4117,0.0287 -0.8304,0.0439 -1.2318,0.0437 -0.4416,-5e-4 -0.8604,-0.0221 -1.2272,-0.0674 h -0.001 c -0.3548,-0.0439 -0.6655,-0.1111 -0.9077,-0.2039 -0.3122,-0.1196 -0.5613,-0.2876 -0.7349,-0.5086 -0.1755,-0.2231 -0.2696,-0.4902 -0.2702,-0.8045 l 0.001,-0.0147 0.003,-0.0651 v -0.01 c 0.0361,-0.458 0.1065,-1.0314 0.2056,-1.7002 0.1007,-0.6781 0.2363,-1.4803 0.4007,-2.3816 0.0873,-0.4796 0.174,-0.9396 0.2591,-1.3788 l 0.0642,-0.3281 c -0.3863,0.4424 -0.7897,0.8848 -1.2076,1.3188 -0.6218,0.6459 -1.278,1.2744 -1.9605,1.8582 -1.43,1.2228 -2.9608,2.2322 -4.5228,2.7877 -1.374,0.4888 -2.7727,0.6291 -4.1501,0.2619 -1.5356,-0.4093 -2.5984,-1.1981 -3.3151,-2.1997 -0.5704,-0.7971 -0.9168,-1.7248 -1.1052,-2.6998 -0.7534,0.9066 -1.6832,1.8083 -2.8306,2.6575 -1.3816,1.0225 -3.0806,1.9692 -5.1697,2.7558 -0.7654,0.2879 -1.5061,0.5038 -2.2195,0.6537 -0.7483,0.1575 -1.47,0.2438 -2.1617,0.267 -1.1561,0.0385 -2.2228,-0.1007 -3.1907,-0.3796 -1.0451,-0.3012 -1.9756,-0.7653 -2.7798,-1.3438 -0.7649,-0.5504 -1.4149,-1.2032 -1.941,-1.9178 -0.5497,-0.7465 -0.9661,-1.5628 -1.2388,-2.402 -0.136,-0.4186 -0.2365,-0.8432 -0.2998,-1.2672 -0.0631,-0.422 -0.0902,-0.8495 -0.0802,-1.2764 0.1496,-6.3001 5.9074,-24.4109 6.0278,-24.7896 l -3e-4,-2e-4 0.001,-0.004 10e-4,-0.002 0.0229,-0.072 0.009,-0.0291 0.0128,-0.0238 0.0418,-0.0776 c 0.2478,-0.4626 0.6348,-0.8114 1.1112,-1.0684 0.516,-0.2781 1.1392,-0.4479 1.8025,-0.5381 0.6734,-0.0915 1.4081,-0.1051 2.0951,-0.0745 0.8857,0.0393 1.6972,0.1521 2.1986,0.2656 0.0157,0.004 0.0415,0.0105 0.0765,0.0206 l 0.0924,0.0268 v 0.001 c 0.4282,0.1351 0.7827,0.3881 1.0548,0.7431 0.2642,0.3453 0.4485,0.7865 0.5439,1.3078 0.0766,0.4183 0.0962,0.8944 0.053,1.4143 -0.0412,0.4945 -0.1393,1.0345 -0.2992,1.6083 -0.037,0.1326 -0.0791,0.2713 -0.1259,0.4156 -0.0477,0.1468 -0.0999,0.2977 -0.1558,0.4511 -0.243,0.6663 -0.8095,2.4489 -1.4909,4.6997 -0.589,1.9459 -1.2704,4.2622 -1.9106,6.5359 -0.4902,1.7413 -0.954,3.4505 -1.3282,4.9323 -0.325,1.2875 -0.5774,2.3823 -0.7131,3.1461 -0.0125,0.0705 -0.0234,0.1466 -0.0319,0.2279 -0.008,0.078 -0.014,0.154 -0.0164,0.2265 -0.008,0.2356 0.0138,0.4713 0.0734,0.6916 0.0514,0.1894 0.1319,0.3667 0.2475,0.5207 0.1261,0.1681 0.3017,0.3159 0.5361,0.4311 0.2269,0.1116 0.5105,0.1939 0.8589,0.2364 0.1155,0.0141 0.2308,0.024 0.3452,0.0289 0.1231,0.005 0.2505,0.007 0.3814,0.004 0.877,-0.0207 1.6545,-0.2419 2.3476,-0.6011 0.6991,-0.3622 1.315,-0.8661 1.8623,-1.448 0.5904,-0.6276 1.1098,-1.3506 1.5729,-2.0944 0.4682,-0.7517 0.8788,-1.5239 1.2479,-2.2419 1.6402,-3.1905 3.8441,-10.0204 5.4401,-14.968 h -1e-4 l 5e-4,-0.002 0.004,-0.011 0.003,-0.01 c 0.8236,-2.5531 1.487,-4.6092 1.8643,-5.4984 0.2554,-0.6015 0.7565,-1.0467 1.3996,-1.358 0.6973,-0.3375 1.5663,-0.5186 2.4625,-0.5717 0.318,-0.0189 0.6475,-0.0221 0.9781,-0.0111 0.3437,0.0114 0.6803,0.0375 0.9993,0.0764 0.3267,0.0397 0.6446,0.0947 0.9426,0.1625 0.2942,0.067 0.5678,0.1472 0.8098,0.2385 h 10e-4 c 0.4639,0.1755 0.8463,0.4099 1.1129,0.7015 0.2711,0.2962 0.4228,0.6466 0.4236,1.0495 0.002,0.7194 -0.7006,2.744 -1.6468,5.4729 l -0.003,0.008 c -0.6411,1.8482 -1.3996,4.0352 -2.1172,6.291 -0.7168,2.2534 -1.3942,4.58 -1.8757,6.7138 -0.4678,2.0747 -0.7656,3.952 -0.7413,5.3371 0.0221,1.2513 0.2973,2.0641 0.944,2.1749 0.8252,0.1413 1.7209,-0.1112 2.6349,-0.6216 1.1139,-0.6217 2.2498,-1.6223 3.3226,-2.7664 0.8834,-0.9418 1.7176,-1.9768 2.4662,-2.9893 1.0036,-1.3576 1.8563,-2.6778 2.4703,-3.6818 0.4843,-2.0333 0.9847,-4.0526 1.4732,-5.9407 0.4766,-1.8416 0.9447,-3.57 1.3791,-5.0788 0.4239,-1.4726 0.8197,-2.7466 1.166,-3.7293 0.3316,-0.9421 0.625,-1.6365 0.8626,-2.0081 l 0.0145,-0.0228 0.004,-0.005 c 0.3223,-0.4924 0.7925,-0.848 1.3436,-1.0805 0.5966,-0.2517 1.2916,-0.359 1.9942,-0.3401 0.3229,0.009 0.6498,0.0437 0.9687,0.1028 0.3185,0.0591 0.6335,0.1431 0.9336,0.2501 l 4e-4,-0.001 c 0.3185,0.1133 0.6237,0.256 0.9021,0.4257 0.2701,0.1643 0.5146,0.3544 0.722,0.568 0.3283,0.3382 0.5644,0.7271 0.6749,1.1616 0.103,0.4055 0.0955,0.8458 -0.0492,1.3159 -0.3908,1.2697 -0.9146,3.5307 -1.4024,5.7873 -0.4378,2.0253 -0.8483,4.0581 -1.107,5.3605 l 9.3171,-0.6443 c 0.4226,-1.583 1.3911,-5.1449 2.3538,-8.2371 0.6094,-1.9571 1.2179,-3.7291 1.6878,-4.7009 0.2043,-0.4228 0.5327,-0.7588 0.9453,-1.0137 0.4288,-0.2649 0.9511,-0.4428 1.5189,-0.54 0.3801,-0.0648 0.7919,-0.0951 1.212,-0.0923 0.4251,0.003 0.8556,0.0396 1.2675,0.1082 0.4355,0.0728 0.862,0.1832 1.2537,0.3291 0.3787,0.141 0.7249,0.3156 1.0162,0.5219 0.3598,0.2544 0.648,0.5577 0.8383,0.9095 0.1827,0.3373 0.2746,0.7157 0.2535,1.1342 -0.0489,0.9733 -0.2009,1.4326 -0.6152,2.685 l 10e-4,4e-4 -8e-4,0.002 -0.002,0.004 c -0.6231,1.8833 -1.9017,5.7474 -4.4907,16.7026 -0.1243,0.5262 -0.2685,1.2406 -0.3623,1.9923 -0.0703,0.5635 -0.1138,1.1529 -0.1022,1.7079 0.007,0.3396 0.036,0.6647 0.0936,0.9568 0.0491,0.2488 0.1186,0.468 0.2129,0.6431 0.0598,0.1106 0.1337,0.1985 0.2241,0.2545 0.0813,0.0505 0.1817,0.0791 0.3031,0.0795 0.0884,2e-4 0.192,-0.0109 0.3111,-0.0345 0.1182,-0.0234 0.2497,-0.0599 0.3946,-0.1099 0.6347,-0.219 1.3936,-0.7457 2.2056,-1.4539 0.8276,-0.7219 1.7081,-1.633 2.5699,-2.6031 0.8587,-0.9666 1.6838,-1.9759 2.4206,-2.9195 0.7085,-0.9074 1.3484,-1.7708 1.8613,-2.4804 0.0285,-0.7137 0.0861,-1.4024 0.1671,-2.0599 0.0906,-0.7357 0.2113,-1.4419 0.3543,-2.1074 0.164,-0.7643 0.3592,-1.4816 0.5738,-2.1355 0.226,-0.6888 0.476,-1.312 0.7363,-1.8505 0.5831,-1.2057 1.1914,-2.1242 1.8195,-2.7968 0.6447,-0.69 1.3133,-1.1249 1.9997,-1.3478 0.737,-0.2391 1.4579,-0.2345 2.1637,-0.0364 0.6891,0.1932 1.3609,0.5717 2.0165,1.0871 1.9376,1.5221 0.589,4.1723 -0.263,5.8462 z m 21.1704,-2.1335 c 0.3165,0.1305 0.6365,0.2471 0.9586,0.3501 0.2265,0.0725 0.4557,0.1393 0.6867,0.2003 0.0435,-0.1921 0.086,-0.3848 0.1276,-0.5782 0.0645,-0.3005 0.1266,-0.6021 0.1858,-0.9039 0.6659,-3.3807 1.0144,-6.7923 1.1179,-9.8095 0.1186,-3.4544 -0.0824,-6.3897 -0.4936,-8.1663 -0.16,-0.691 -0.467,-1.339 -0.887,-1.9204 -0.4393,-0.6077 -1.0017,-1.144 -1.6498,-1.5823 -0.4191,-0.2836 -0.8764,-0.5269 -1.361,-0.7223 -0.474,-0.1911 -0.9731,-0.3356 -1.4867,-0.4257 -0.528,-0.0927 -1.0687,-0.1291 -1.6111,-0.102 -0.522,0.0259 -1.0492,0.1108 -1.5718,0.2602 -0.8119,0.2319 -1.6181,0.6238 -2.3849,1.199 -0.7121,0.5343 -1.3895,1.2262 -2.0046,2.0939 -0.1239,0.2066 -0.2382,0.4096 -0.3431,0.6088 -0.1116,0.2116 -0.214,0.4195 -0.3069,0.6231 -0.7609,1.664 -1.0447,3.3198 -0.9523,4.9237 0.1014,1.7611 0.6571,3.4649 1.5329,5.0526 0.8374,1.5182 1.9636,2.9322 3.2674,4.1942 1.3951,1.3505 2.9932,2.5276 4.6587,3.474 0.4165,0.2366 0.8337,0.4572 1.2489,0.6601 0.413,0.202 0.8368,0.3927 1.2683,0.5706 z m -21.3046,-59.5867 c -0.0685,0.1353 -0.1336,0.2626 -0.1872,0.3703 -0.0246,0.0494 -0.0471,0.0958 -0.0673,0.1378 l -0.0541,0.1261 c -1.1252,2.6252 -1.7022,5.0949 -1.8247,7.313 -0.1319,2.3853 0.2605,4.479 1.06,6.1594 0.3541,0.7447 0.7875,1.4057 1.2883,1.9711 0.5007,0.565 1.0699,1.0368 1.6962,1.4035 0.6289,0.3681 1.3198,0.6326 2.0602,0.7816 0.7246,0.1457 1.4986,0.1808 2.3113,0.0949 1.7329,-0.1837 3.6396,-0.9129 5.6305,-2.2871 1.8358,-1.2672 3.7416,-3.0816 5.6474,-5.5207 l 0.006,-0.01 0.009,-0.0132 0.0136,-0.0164 c 0.7234,-0.8753 1.3799,-1.8726 1.9737,-2.9617 0.5694,-1.0441 1.0789,-2.1685 1.5322,-3.3471 -0.8848,-0.0327 -1.7357,-0.0979 -2.5529,-0.1929 -0.982,-0.1141 -1.9289,-0.273 -2.8401,-0.4718 -2.3749,-0.5184 -4.4714,-1.3063 -6.3076,-2.2882 -2.0124,-1.076 -3.7145,-2.3858 -5.1299,-3.83 -1.298,-1.3244 -2.3536,-2.7608 -3.1852,-4.2331 -0.9096,-1.6102 -1.5533,-3.2666 -1.9553,-4.8685 -0.3202,-1.2764 -0.4876,-2.5253 -0.5141,-3.6964 -0.0274,-1.2099 0.0952,-2.3362 0.3544,-3.3227 0.3604,-2.0862 1.0742,-4.01 2.0589,-5.74 1.0445,-1.8352 2.3954,-3.4542 3.9543,-4.8199 1.6264,-1.4244 3.4798,-2.5714 5.4468,-3.3984 1.9555,-0.8221 4.0258,-1.3297 6.0995,-1.4807 l 0.008,-0.0043 0.0722,-0.0043 c 1.0722,-0.0636 2.1241,-0.0405 3.1494,0.0731 1.0107,0.1121 1.9972,0.3126 2.953,0.605 0.9415,0.2881 1.8505,0.665 2.7203,1.1338 0.8527,0.4595 1.6713,1.0095 2.4494,1.6528 1.8399,1.5214 3.1754,3.4666 4.11,5.6664 1.0523,2.4771 1.5959,5.2762 1.7805,8.154 0.1649,2.5721 0.0422,5.2132 -0.2585,7.7406 -0.3342,2.8093 -0.8882,5.4809 -1.5108,7.7624 4.7413,-0.6906 8.6142,-2.2082 8.7619,-2.2661 l 0.004,-0.001 7e-4,-2e-4 v -2e-4 l 0.8603,-0.3365 0.3363,-0.1314 0.0832,0.3518 0.2069,0.8758 0.2295,0.9724 0.0832,0.3531 0.0309,0.1318 -0.076,0.114 -0.2082,0.3123 -3e-4,-2e-4 c -0.0463,0.0697 -1.1613,1.6937 -5.3588,2.8146 l 1e-4,5e-4 c -1.1654,0.355 -2.3115,0.6695 -3.4379,0.9457 -1.0792,0.2646 -2.1322,0.4908 -3.1588,0.6806 l -0.001,0.003 -10e-4,10e-4 -0.0671,0.152 v 0.002 c -0.7176,1.6 -1.4426,3.1083 -2.2037,4.5391 -0.762,1.4326 -1.555,2.7767 -2.4063,4.0442 -0.8604,1.2811 -1.785,2.4906 -2.8021,3.6413 -1.0143,1.1473 -2.1193,2.2333 -3.3434,3.2696 l 5e-4,5e-4 c -1.616,1.368 -3.4591,2.4319 -5.3996,3.197 -2.0535,0.8095 -4.218,1.2853 -6.3398,1.4336 -2.1787,0.1523 -4.3218,-0.0424 -6.264,-0.5766 -1.7777,-0.4888 -3.3882,-1.263 -4.7062,-2.3161 l -8e-4,0.001 -0.2455,-0.2024 c -0.6843,-0.5637 -1.3028,-1.1668 -1.8594,-1.8012 -0.5818,-0.6631 -1.0935,-1.3571 -1.5406,-2.0734 -0.2597,-0.4161 -0.499,-0.8413 -0.7184,-1.2732 -0.1177,-0.2318 -0.2297,-0.4656 -0.336,-0.7012 -0.2709,0.5466 -0.5946,1.1389 -0.9779,1.754 -0.5364,0.8607 -1.1881,1.763 -1.973,2.6418 -0.8468,0.9482 -1.8463,1.8715 -3.0199,2.6907 -1.03,0.719 -2.1979,1.3611 -3.5191,1.874 -6.0475,2.3475 -8.6695,-0.0461 -9.6939,-3.5364 -0.9311,-3.1733 -0.4887,-7.2635 -0.1525,-9.3755 -1.7498,0.0861 -4.8127,0.2371 -7.1135,0.3513 -1.5521,0.0772 -2.7593,0.1381 -2.9801,0.1512 -0.0728,0.004 0.0322,0.5918 -0.0305,1.5074 -0.0761,1.1122 -0.1795,2.6211 -0.5063,4.2018 -0.2674,1.2936 -0.541,2.6168 -0.8105,3.8514 -0.2648,1.2128 -0.5148,2.288 -0.7291,3.0562 -0.118,0.4233 -0.5001,0.765 -1.047,1.025 -0.5473,0.2602 -1.2766,0.4482 -2.0658,0.5582 -0.3988,0.0555 -0.821,0.0992 -1.2406,0.1284 -0.4114,0.0288 -0.83,0.044 -1.2307,0.0436 -0.4415,-3e-4 -0.8603,-0.0218 -1.2272,-0.0671 h -10e-4 c -0.3548,-0.0439 -0.6658,-0.1111 -0.9082,-0.204 -0.3122,-0.1198 -0.5613,-0.2879 -0.7352,-0.5089 -0.1755,-0.223 -0.2697,-0.4902 -0.2703,-0.8045 l 10e-4,-0.0147 0.003,-0.0651 -10e-5,-0.01 c 0.0468,-0.5921 0.1531,-1.3905 0.3071,-2.3483 0.1627,-1.0107 0.3767,-2.185 0.6289,-3.4706 0.1279,-0.6514 0.2731,-1.3661 0.4331,-2.1345 0.0569,-0.2732 0.1158,-0.5534 0.1768,-0.8402 -0.3249,0.4415 -0.6646,0.8869 -1.0198,1.3341 -0.6949,0.8749 -1.4519,1.7613 -2.2736,2.6447 -1.6362,1.7587 -3.5295,3.5056 -5.7082,5.1313 -1.8916,1.4115 -3.9959,2.7306 -6.33,3.8854 -0.4412,1.7691 -0.8838,3.5269 -1.3153,5.2198 -0.4267,1.6738 -0.7998,3.112 -1.0938,4.2096 -0.1416,0.5288 -0.3216,1.0629 -0.5358,1.5953 -0.2155,0.5354 -0.4671,1.0725 -0.7511,1.6042 -0.6972,1.3057 -1.5918,2.5819 -2.629,3.7389 -1.0037,1.1199 -2.1432,2.1304 -3.3684,2.9509 l 4e-4,6e-4 c -1.3331,0.8928 -2.7718,1.5643 -4.2566,1.9158 -1.3754,0.3255 -2.7891,0.3762 -4.1945,0.0741 -0.357,-0.0766 -0.7153,-0.1771 -1.0733,-0.3022 -0.3493,-0.1219 -0.6953,-0.2669 -1.0367,-0.4355 -0.8406,-0.4152 -1.5412,-0.9417 -2.1081,-1.5553 -0.595,-0.6441 -1.0428,-1.3838 -1.3512,-2.1914 -0.2441,-0.6387 -0.3992,-1.3189 -0.4695,-2.0262 -0.0714,-0.7179 -0.055,-1.4625 0.0446,-2.2188 0.096,-0.7308 0.2701,-1.475 0.5171,-2.2176 0.2467,-0.742 0.5662,-1.4825 0.9532,-2.2071 0.828,-1.551 1.9737,-3.0435 3.3918,-4.34 1.3221,-1.2087 2.883,-2.249 4.6464,-3.0095 0.6991,-0.3016 1.3483,-0.577 1.974,-0.8396 0.5198,-0.2183 1.1937,-0.4985 1.8781,-0.7828 l 0.0167,-0.007 c 1.7984,-0.7471 3.6257,-1.5066 5.3997,-2.2959 0.3284,-2.0063 0.6284,-4.1224 0.9361,-6.3016 -0.7652,0.7891 -1.5457,1.5395 -2.3327,2.2314 -0.9489,0.8339 -1.9097,1.586 -2.8674,2.222 -1.2047,0.7997 -2.4143,1.4226 -3.6046,1.8062 -1.1186,0.3607 -2.2203,0.5106 -3.2851,0.3993 h -0.004 l -0.0356,-0.004 -0.01,-0.001 c -0.317,-0.0473 -0.6261,-0.106 -0.9273,-0.1749 -0.3003,-0.0689 -0.5917,-0.1489 -0.8733,-0.2389 -1.4237,-0.456 -2.5573,-1.1601 -3.4406,-2.0521 -0.9568,-0.9662 -1.6169,-2.149 -2.0322,-3.4723 -0.3639,-1.1602 -0.534,-2.4277 -0.5483,-3.7472 -0.0154,-1.4293 0.1522,-2.9197 0.4538,-4.4006 0.0942,-0.4623 0.2013,-0.9234 0.3193,-1.3803 0.0734,-0.2844 0.1506,-0.5653 0.2308,-0.8418 -1.0359,0.3089 -2.0568,0.5861 -3.0617,0.8325 -1.0794,0.2646 -2.1326,0.491 -3.1593,0.6806 l -9e-4,0.002 -0.001,0.004 -0.0673,0.152 v 0.001 c -0.7175,1.5997 -1.4423,3.108 -2.2035,4.5391 -0.7619,1.4323 -1.5548,2.7767 -2.4063,4.0441 -0.8604,1.281 -1.7852,2.4907 -2.8022,3.6414 -1.0166,1.1501 -2.1216,2.2362 -3.3427,3.2699 -1.6159,1.368 -3.459,2.4321 -5.3996,3.197 -2.0535,0.8096 -4.2181,1.2855 -6.34,1.4338 -2.1786,0.1522 -4.3216,-0.0424 -6.2638,-0.5766 -1.7511,-0.4816 -3.3402,-1.24 -4.647,-2.2693 l -10e-4,0.003 -0.3043,-0.2508 c -1.602,-1.3195 -2.8316,-2.8411 -3.7556,-4.4701 -1.0367,-1.8277 -1.686,-3.7886 -2.0442,-5.7503 -0.4273,-2.3421 -0.437,-4.6918 -0.1965,-6.8173 0.293,-2.5878 0.9584,-4.8528 1.6937,-6.3738 0.5829,-1.2059 1.1915,-2.1244 1.8196,-2.7969 0.6445,-0.6902 1.3132,-1.1249 1.9996,-1.3477 0.7368,-0.2393 1.4577,-0.2348 2.1637,-0.0368 0.6891,0.1933 1.3608,0.572 2.0164,1.0871 0.9839,0.773 1.1179,1.8515 0.8928,2.9545 -0.2118,1.0376 -0.7439,2.0832 -1.1559,2.8924 l -0.002,0.005 c -0.1015,0.1998 -0.1941,0.3818 -0.2589,0.5172 l -0.0538,0.1255 c -1.1252,2.6253 -1.7022,5.0949 -1.8249,7.3129 -0.1318,2.3853 0.2606,4.479 1.0601,6.1594 0.3541,0.7446 0.7875,1.4057 1.2883,1.971 0.5008,0.5654 1.0699,1.0371 1.6959,1.4036 0.6289,0.368 1.3198,0.6328 2.0605,0.7817 0.7245,0.1457 1.4986,0.1809 2.3113,0.0949 1.7328,-0.1837 3.6396,-0.9129 5.6303,-2.2871 1.8349,-1.2664 3.7396,-3.0798 5.6443,-5.5166 l 0.008,-0.0126 0.007,-0.0113 0.0162,-0.0195 c 0.7232,-0.8753 1.3799,-1.8724 1.9737,-2.9614 0.5694,-1.0442 1.0788,-2.1686 1.5322,-3.3472 -0.885,-0.0328 -1.7357,-0.098 -2.5531,-0.1929 -0.982,-0.1142 -1.9288,-0.2731 -2.8399,-0.472 -2.3748,-0.5183 -4.4712,-1.3062 -6.3074,-2.2879 -2.0124,-1.0759 -3.7146,-2.386 -5.1301,-3.8301 -1.2981,-1.3244 -2.3537,-2.7609 -3.1852,-4.2332 -0.9097,-1.6104 -1.5534,-3.2668 -1.9553,-4.8685 -0.3201,-1.2762 -0.4874,-2.5254 -0.5141,-3.6963 -0.0275,-1.21 0.0952,-2.3362 0.3544,-3.3228 0.3605,-2.0863 1.0742,-4.01 2.059,-5.7403 1.0444,-1.8351 2.3955,-3.4541 3.9543,-4.8196 1.6264,-1.4244 3.4797,-2.5715 5.4466,-3.3985 1.9555,-0.8221 4.0259,-1.3297 6.0997,-1.4807 l 0.008,-0.0043 0.0722,-0.0043 c 1.0723,-0.0636 2.1243,-0.0404 3.1496,0.0733 1.0106,0.112 1.9971,0.3126 2.9528,0.6049 0.9416,0.2881 1.8505,0.665 2.7204,1.1338 0.8528,0.4596 1.671,1.0096 2.4492,1.6528 1.8401,1.5214 3.1755,3.4664 4.1099,5.6663 1.0523,2.4771 1.5959,5.2762 1.7806,8.1541 0.1648,2.5706 0.0422,5.2102 -0.258,7.7362 -0.3337,2.8078 -0.8871,5.4782 -1.5092,7.7594 1.2136,-0.1761 2.3735,-0.4073 3.4303,-0.6542 1.1309,-0.2645 2.1385,-0.5464 2.9652,-0.7989 0.1185,-0.2471 0.2431,-0.4968 0.3722,-0.7476 0.1507,-0.2921 0.3008,-0.5717 0.449,-0.8361 0.1809,-0.3229 0.366,-0.6363 0.5534,-0.9377 0.1727,-0.2775 0.3512,-0.5498 0.5344,-0.8146 l 0.0237,-0.0372 c 10.826,-16.9356 29.5947,-8.9825 30.938,-8.3858 l 0.0653,0.0269 c 0.004,0.001 0.5707,0.25 1.0872,0.6903 0.3078,0.2624 0.6047,0.597 0.7763,0.9991 0.1798,0.4213 0.2201,0.9056 -0.004,1.4425 l 10e-4,5e-4 c -0.099,0.2372 -0.2518,0.4844 -0.4696,0.7399 -1.6742,1.9643 -2.6979,1.3663 -4.1775,0.502 l -0.002,-0.001 -6e-4,-4e-4 10e-5,-2e-4 c -0.205,-0.1198 -0.4246,-0.2481 -0.6551,-0.3652 -0.2262,-0.1149 -0.4687,-0.2223 -0.7285,-0.3052 -1.9288,-0.616 -3.8072,-0.773 -5.5978,-0.5919 -2.0232,0.2047 -3.9392,0.8429 -5.6923,1.7399 -2.1723,1.1115 -4.092,2.6102 -5.6612,4.177 -1.9228,1.9197 -3.3174,3.9366 -4.0065,5.4668 -0.6945,1.5412 -1.2183,3.015 -1.5648,4.3621 -0.3516,1.3668 -0.5214,2.6026 -0.5025,3.6445 0.009,0.4765 0.0577,0.9079 0.1479,1.2858 0.0849,0.3558 0.2062,0.6596 0.364,0.9031 0.1286,0.1983 0.287,0.3554 0.4744,0.4651 0.1836,0.1075 0.4009,0.1732 0.6518,0.1922 0.2867,0.0216 0.616,-0.0108 0.9887,-0.1021 0.3695,-0.0906 0.7829,-0.2395 1.2405,-0.4509 2.5696,-1.5475 4.6765,-3.7675 6.4385,-6.1257 1.7741,-2.3745 3.2044,-4.8979 4.4067,-7.0193 l 5e-4,-9e-4 c 2.1195,-3.7392 3.6399,-6.4215 5.7979,-5.7198 0.9211,0.2993 1.5579,0.6899 1.9596,1.179 0.4178,0.5087 0.5776,1.1089 0.5333,1.81 -0.0342,0.5425 -0.2123,1.1167 -0.4968,1.7409 -0.27,0.5925 -0.637,1.232 -1.068,1.9358 -0.4773,1.9785 -1.1009,4.5563 -1.7903,7.3947 -0.701,2.8864 -1.4569,5.9864 -2.1769,8.9172 1.1172,-0.6641 2.1881,-1.3676 3.1947,-2.1196 1.1949,-0.8927 2.2989,-1.8532 3.2819,-2.8967 1.2065,-1.2809 2.3362,-2.609 3.3771,-3.9253 1.2241,-1.5482 2.3152,-3.0674 3.26,-4.4692 0.7261,-1.0774 1.3719,-2.0933 1.9285,-3.004 0.7374,-1.2068 1.3123,-2.2209 1.7091,-2.9466 0.3684,-1.4279 0.7283,-2.7775 1.0676,-3.9998 0.3332,-1.199 0.6503,-2.2901 0.9409,-3.2292 0.2935,-0.9488 0.5676,-1.7651 0.8132,-2.4101 0.2183,-0.5733 0.4179,-1.0207 0.5932,-1.317 v -0.006 l 0.0502,-0.0785 c 0.3229,-0.5051 0.7997,-0.8684 1.3602,-1.1049 h 0.001 c 0.5969,-0.2516 1.2923,-0.3589 1.9952,-0.34 0.3226,0.009 0.6494,0.0436 0.9683,0.1026 0.3187,0.0591 0.6341,0.1433 0.9343,0.2503 0.3219,0.1146 0.627,0.2571 0.9023,0.4247 0.2696,0.1643 0.5137,0.3539 0.7207,0.5669 v 10e-4 c 0.3295,0.3392 0.5659,0.7281 0.6761,1.1615 0.103,0.4053 0.0955,0.8457 -0.0492,1.316 -0.3944,1.2811 -0.9364,3.5412 -1.4451,5.7941 -0.4584,2.0301 -0.8906,4.0576 -1.1639,5.3596 l 9.4165,-0.6504 c 0.3346,-1.2529 1.0105,-3.7435 1.7541,-6.2577 0.7919,-2.6781 1.6631,-5.3888 2.2875,-6.6802 0.2045,-0.4229 0.533,-0.7589 0.9457,-1.0138 0.4288,-0.2649 0.9511,-0.4427 1.5191,-0.5398 0.3802,-0.0649 0.792,-0.0952 1.2122,-0.0924 0.4249,0.003 0.8554,0.0398 1.2672,0.1085 0.4353,0.0725 0.8615,0.1828 1.253,0.3287 0.3788,0.1411 0.7252,0.3159 1.0167,0.5223 0.3597,0.2544 0.6477,0.5577 0.8382,0.9094 0.1825,0.3374 0.2744,0.7157 0.2534,1.134 -0.0487,0.9732 -0.2008,1.4324 -0.6154,2.6856 l -10e-4,0.004 -5e-4,10e-4 c -0.6229,1.883 -1.9013,5.7465 -4.4905,16.703 -0.1244,0.5265 -0.2686,1.2408 -0.3624,1.9922 -0.0705,0.564 -0.1141,1.1542 -0.1023,1.7094 0.007,0.3389 0.0357,0.6635 0.0933,0.9556 0.0491,0.2489 0.1186,0.4682 0.213,0.643 0.0597,0.1108 0.1338,0.1987 0.224,0.2548 0.0813,0.0504 0.1816,0.0789 0.3031,0.0792 0.0883,2e-4 0.1919,-0.0108 0.311,-0.0344 0.12,-0.0238 0.2518,-0.0601 0.395,-0.1093 l -10e-5,-4e-4 c 0.5113,-0.1765 1.0699,-0.5175 1.6482,-0.9672 0.5914,-0.4596 1.2022,-1.0324 1.8048,-1.6602 0.7817,-0.8146 1.5395,-1.7135 2.2257,-2.5866 0.9276,-1.1802 1.7297,-2.3179 2.2876,-3.1416 -0.1102,-0.9641 -0.155,-1.9248 -0.1461,-2.8641 0.01,-1.0549 0.0878,-2.0768 0.2166,-3.0426 0.1513,-1.1357 0.3741,-2.2021 0.6406,-3.1608 0.2899,-1.042 0.6327,-1.9605 0.993,-2.706 0.5832,-1.2059 1.1915,-2.1245 1.8196,-2.7969 0.6446,-0.6901 1.3133,-1.125 1.9996,-1.3477 0.7368,-0.2392 1.4578,-0.2347 2.1638,-0.0367 0.6891,0.1932 1.3608,0.5718 2.0165,1.0871 1.9373,1.5223 0.5893,4.1715 -0.2626,5.8459 l -0.006,0.0135 -5e-4,9e-4 z m -100.6742,5.0827 c 0.3159,0.1302 0.6358,0.2467 0.9579,0.3496 0.2267,0.0723 0.4561,0.1391 0.6874,0.2 0.0436,-0.1924 0.0862,-0.3854 0.1277,-0.579 0.0626,-0.2915 0.1246,-0.5932 0.1858,-0.9035 h 2e-4 c 0.6658,-3.3804 1.0142,-6.7915 1.1177,-9.8082 0.1184,-3.4545 -0.0825,-6.3899 -0.4938,-8.1664 -0.1598,-0.6912 -0.4668,-1.3392 -0.8868,-1.9206 -0.4392,-0.6079 -1.0019,-1.144 -1.65,-1.5825 -0.4191,-0.2835 -0.8763,-0.5267 -1.3612,-0.7222 -0.4738,-0.1912 -0.9728,-0.3355 -1.4863,-0.4255 -0.5281,-0.0927 -1.0691,-0.1292 -1.6117,-0.102 -0.5218,0.0258 -1.0488,0.1107 -1.5714,0.2602 -0.8119,0.2319 -1.6182,0.6239 -2.3847,1.1989 -0.712,0.5344 -1.3896,1.2261 -2.0046,2.0939 -0.1242,0.207 -0.2387,0.4105 -0.3438,0.61 -0.1114,0.2111 -0.2135,0.4186 -0.3064,0.622 -0.7607,1.6639 -1.0446,3.3194 -0.9523,4.9233 0.1014,1.7611 0.6571,3.4649 1.5329,5.0529 0.8374,1.5182 1.9637,2.9321 3.2675,4.1942 1.3952,1.3506 2.9932,2.5276 4.6587,3.4738 0.4163,0.2365 0.8337,0.4574 1.2487,0.6603 0.4133,0.2022 0.8371,0.3928 1.2685,0.5708 z m 25.1026,37.1015 c 1.9038,-0.7923 3.3556,-2.2156 4.4993,-4.1242 1.0633,-1.7748 1.861,-3.9675 2.5065,-6.4627 -0.987,0.5369 -1.8916,1.0562 -2.7167,1.5621 -0.9963,0.6109 -1.8744,1.2003 -2.6388,1.7757 -1.1925,0.8977 -2.11,1.7604 -2.7744,2.6194 -0.6508,0.8416 -1.0553,1.6773 -1.2356,2.538 h -2e-4 c -0.0596,0.285 -0.0841,0.577 -0.071,0.8571 0.0124,0.2655 0.0592,0.5205 0.1424,0.7479 0.0415,0.1137 0.0918,0.218 0.1503,0.3096 h 0.001 c 0.0543,0.0851 0.1162,0.1605 0.185,0.223 0.0647,0.0587 0.1388,0.1086 0.2223,0.147 0.0844,0.039 0.1776,0.0675 0.2793,0.0831 0.1787,0.0276 0.3889,0.0224 0.6321,-0.0221 0.2403,-0.044 0.5124,-0.1268 0.8183,-0.2539 z m 96.7487,-44.3309 c 0.3165,0.1305 0.6365,0.247 0.9586,0.35 0.2265,0.0724 0.4558,0.1391 0.6867,0.2002 0.0436,-0.1923 0.0863,-0.3854 0.1278,-0.5789 0.0644,-0.3001 0.1264,-0.6015 0.1856,-0.903 0.6658,-3.3808 1.0144,-6.7923 1.1179,-9.8096 0.1186,-3.4543 -0.0824,-6.3896 -0.4937,-8.1662 -0.1599,-0.6911 -0.4669,-1.3392 -0.8869,-1.9205 -0.439,-0.6078 -1.0017,-1.1441 -1.6498,-1.5825 -0.4192,-0.2835 -0.8767,-0.5267 -1.3617,-0.7224 -0.4739,-0.191 -0.9726,-0.3353 -1.4861,-0.4254 -0.5279,-0.0926 -1.0688,-0.129 -1.6112,-0.102 -0.5219,0.026 -1.049,0.1108 -1.5716,0.2602 -0.8119,0.232 -1.6181,0.6239 -2.3849,1.1991 -0.7121,0.5343 -1.3896,1.2261 -2.0046,2.0939 -0.1242,0.2069 -0.2385,0.4101 -0.3435,0.6092 -0.1115,0.2115 -0.2136,0.4192 -0.3065,0.6227 -0.7609,1.6638 -1.0448,3.3195 -0.9524,4.9234 0.1015,1.7614 0.6572,3.465 1.5329,5.0529 0.8374,1.5182 1.9637,2.9321 3.2676,4.1943 1.3951,1.3504 2.9932,2.5275 4.6586,3.4736 0.4164,0.2367 0.8335,0.4571 1.2485,0.6602 0.4132,0.202 0.8371,0.3929 1.2687,0.5708 z m -160.3152,87.1148 c -0.0672,0.1145 -0.1221,0.2474 -0.163,0.3994 -0.0406,0.1504 -0.0673,0.316 -0.0784,0.497 h 2e-4 v 0.003 l -10e-4,0.0184 c -0.0191,0.3278 0.0265,0.6379 0.1273,0.923 0.105,0.2973 0.2704,0.5694 0.4847,0.8082 h 0.001 c 0.2219,0.2479 0.4962,0.4629 0.8117,0.6373 0.3191,0.1765 0.6809,0.3128 1.0739,0.4011 0.421,0.0945 0.8756,0.1338 1.3508,0.1098 0.4535,-0.0228 0.9291,-0.105 1.4152,-0.2528 0.707,-0.2153 1.4316,-0.5706 2.142,-1.0874 0.5711,-0.4153 1.1337,-0.9353 1.6715,-1.5707 -1.0923,-0.5251 -2.2173,-0.9602 -3.2995,-1.2684 -1.1344,-0.3229 -2.2163,-0.5058 -3.157,-0.5047 -0.3217,5e-4 -0.6251,0.0228 -0.904,0.069 -0.2617,0.0434 -0.5001,0.108 -0.7101,0.195 -0.1741,0.0722 -0.3296,0.1624 -0.4623,0.2715 h -0.001 c -0.1211,0.0995 -0.2228,0.2163 -0.3019,0.351 z m 49.2965,-35.7421 c 0.0494,0.3984 0.0723,0.8091 0.0672,1.2305 -0.005,0.4147 -0.0369,0.8318 -0.0968,1.2494 v 0.001 c -0.2145,1.483 -0.6871,2.9638 -1.4029,4.384 -0.7018,1.3923 -1.6378,2.7266 -2.7939,3.948 -0.8638,0.9122 -1.8516,1.7622 -2.9575,2.5267 -0.8876,0.6135 -1.8525,1.1722 -2.8911,1.6638 0.7056,0.3447 1.4698,0.7633 2.2432,1.2653 1.0079,0.6539 2.0302,1.4488 2.9569,2.4043 1.3931,1.4362 2.5697,3.2237 3.1717,5.4243 0.6006,2.1962 0.6279,4.7997 -0.2754,7.8692 -0.1882,0.64 -0.4421,1.2855 -0.757,1.9271 -0.3144,0.6407 -0.6888,1.2763 -1.1185,1.8975 -1.0023,1.4491 -2.32,2.8433 -3.8995,4.0708 -1.4821,1.1518 -3.1954,2.1568 -5.0951,2.9218 -2.038,0.8207 -4.2926,1.368 -6.7079,1.5274 -2.2069,0.1456 -4.5496,-0.0325 -6.9855,-0.6219 -1.4105,-0.3411 -2.8514,-0.8201 -4.3136,-1.4534 -1.3124,-0.5686 -2.6429,-1.2615 -3.9851,-2.0914 -0.4379,0.6126 -0.9128,1.1955 -1.4407,1.7436 -0.6,0.6233 -1.2695,1.203 -2.0314,1.7309 -0.8845,0.6131 -1.8886,1.1516 -3.0477,1.602 -1.1559,0.4491 -2.4642,0.8108 -3.9602,1.0719 -1.0316,0.1796 -2.0292,0.2505 -2.9819,0.2268 -1.0042,-0.0251 -1.9548,-0.1555 -2.8401,-0.3739 -0.9913,-0.2448 -1.9043,-0.6007 -2.7238,-1.0445 -0.8519,-0.4614 -1.6018,-1.0179 -2.2329,-1.6432 -0.6417,-0.6359 -1.164,-1.3449 -1.5495,-2.101 -0.3842,-0.7536 -0.633,-1.5542 -0.7297,-2.3762 -0.0523,-0.4443 -0.0594,-0.8978 -0.0188,-1.356 0.0397,-0.449 0.1249,-0.8976 0.2573,-1.3411 0.8242,-2.7739 2.3942,-4.4947 4.3458,-5.4887 1.9335,-0.9844 4.2325,-1.2453 6.5439,-1.1087 1.894,0.1118 3.7954,0.4979 5.4846,0.9607 1.5293,0.4191 2.8844,0.9012 3.9024,1.2996 0.0586,-0.162 0.1139,-0.3194 0.1653,-0.4713 0.0588,-0.1739 0.1155,-0.3482 0.1695,-0.5225 0.432,-1.3957 0.8854,-2.9018 1.3471,-4.455 0.4903,-1.6494 0.9424,-3.1887 1.3898,-4.7127 1.4978,-5.1009 2.953,-10.0557 4.3246,-13.9453 1.3902,-3.9426 2.7113,-6.8189 3.9361,-7.7096 l 0.0762,-0.0554 0.004,-1e-4 c 0.6491,-0.4593 1.367,-0.8107 2.0802,-1.0568 0.8201,-0.2829 1.6414,-0.4286 2.3503,-0.4409 0.2971,-0.005 0.5765,0.0116 0.8305,0.0501 0.2599,0.0392 0.5029,0.1024 0.722,0.1886 0.3028,0.1194 0.5622,0.2828 0.7674,0.4902 0.2044,0.2067 0.3544,0.4546 0.4398,0.744 0.0646,0.2187 0.0881,0.4497 0.066,0.6909 -0.0211,0.2292 -0.0825,0.4648 -0.1877,0.7042 -0.1859,0.4229 -0.3837,0.861 -0.6214,1.3876 l -0.003,0.008 c -0.6571,1.455 -1.6034,3.5507 -2.4403,5.5435 -0.752,1.7908 -1.4292,3.5277 -1.7596,4.7075 1.3106,-0.0335 3.2207,-0.2001 5.2404,-0.716 1.5403,-0.3932 3.1409,-0.9896 4.5783,-1.8845 1.2065,-0.7511 2.3001,-1.7221 3.1396,-2.9743 0.7361,-1.0977 1.2779,-2.4137 1.5306,-3.9894 0.1225,-0.764 0.1258,-1.4908 0.0203,-2.1727 -0.1078,-0.697 -0.3291,-1.3455 -0.652,-1.9368 -0.2999,-0.5488 -0.6894,-1.0549 -1.1593,-1.5116 -0.4773,-0.464 -1.0359,-0.8763 -1.6665,-1.2306 -0.6523,-0.3665 -1.3848,-0.673 -2.1871,-0.9122 -0.7939,-0.2367 -1.6525,-0.4064 -2.5656,-0.5022 -2.2211,-0.2328 -4.7626,-0.0351 -7.4957,0.6812 -2.5205,0.6605 -5.2055,1.7635 -7.9548,3.3776 h -0.001 c -1.0019,0.587 -1.9733,1.3331 -2.8562,2.1783 -0.8913,0.8534 -1.6904,1.8055 -2.3379,2.7947 -0.5978,0.9131 -1.0642,1.8539 -1.3487,2.7695 -0.2623,0.8442 -0.3684,1.6636 -0.2778,2.4152 0.0183,0.1526 0.0552,0.3393 0.1032,0.5503 0.0483,0.2123 0.112,0.4658 0.1796,0.7354 0.1351,0.5381 0.2855,1.1374 0.4031,1.7672 0.1181,0.6313 0.2004,1.2837 0.1957,1.9153 -0.007,1.0182 -0.2156,1.9533 -0.7772,2.6616 -0.5673,0.7157 -1.4778,1.1854 -2.878,1.2551 -0.2269,0.0113 -0.4499,0.002 -0.6678,-0.0267 -0.2248,-0.0294 -0.4424,-0.0789 -0.6518,-0.1467 -0.6221,-0.2017 -1.2007,-0.568 -1.7156,-1.0641 -0.519,-0.5001 -0.974,-1.1336 -1.3439,-1.8636 -0.3489,-0.6889 -0.626,-1.4703 -0.8116,-2.3086 -0.1775,-0.8028 -0.2717,-1.6631 -0.2652,-2.5497 0.005,-0.6615 0.0654,-1.3363 0.1879,-2.0102 0.1171,-0.643 0.291,-1.2877 0.5275,-1.9217 0.5365,-1.4378 1.2186,-3.0345 2.2137,-4.6717 0.9984,-1.6426 2.3109,-3.3261 4.1045,-4.9314 1.7708,-1.5848 4.0077,-3.0865 6.8699,-4.3841 2.8535,-1.2934 6.3294,-2.3846 10.5862,-3.1528 1.3791,-0.2489 2.7508,-0.4024 4.0988,-0.4672 1.3834,-0.0665 2.7401,-0.0383 4.0532,0.0763 2.0601,0.1801 4.0102,0.5746 5.7883,1.1528 1.8124,0.5891 3.4506,1.3696 4.8498,2.3091 1.4613,0.9813 2.6686,2.1391 3.5524,3.4395 0.8582,1.2629 1.4116,2.6592 1.5977,4.1584 z m 129.189,-45.4269 c 3.1029,9.4232 4.792,19.4895 4.8136,29.9492 0.0153,7.4198 -0.8097,14.6452 -2.3837,21.5866 l -1.5607,0.4008 c 1.6586,-7.0579 2.5307,-14.4183 2.515,-21.9845 -0.0209,-10.1498 -1.6359,-19.9236 -4.6056,-29.0863 0.4173,-0.2777 0.8241,-0.5669 1.2214,-0.8658 z m -0.31,61.2198 c -4.7801,14.0327 -12.7079,26.6113 -22.945,36.8909 -4.144,4.1611 -8.6669,7.9445 -13.5115,11.2963 l -0.6013,-1.3212 c 4.6934,-3.2659 9.0776,-6.9446 13.1001,-10.9837 9.8689,-9.9098 17.5602,-21.9883 22.298,-35.456 z M 389.1211,71.5394 c 4.1263,2.7419 8.0207,5.8056 11.6471,9.1552 -0.589,0.2614 -1.1653,0.5416 -1.7276,0.8402 -3.3372,-3.0355 -6.9015,-5.8254 -10.6634,-8.3427 z m -100.7307,0.986 c -5.4022,3.5117 -10.4086,7.5804 -14.936,12.1265 -16.4196,16.4876 -26.5495,39.2393 -26.4976,64.3468 0.0309,14.9675 3.6775,29.0823 10.1102,41.5209 -0.718,-0.1691 -1.4556,-0.3046 -2.2098,-0.4041 -6.1721,-12.382 -9.6565,-26.3404 -9.6871,-41.1131 -0.0528,-25.6008 10.2761,-48.7995 27.0184,-65.6112 4.6882,-4.7075 9.8794,-8.9138 15.4862,-12.5322 z m -19.6788,135.3015 c 1.5968,1.8697 3.2673,3.6746 5.0084,5.4085 3.5252,3.5106 7.3376,6.7326 11.3972,9.6301 l -0.7154,1.6849 c -4.26,-3.0133 -8.2549,-6.3768 -11.9424,-10.0491 -1.6444,-1.6376 -3.2268,-3.3374 -4.7452,-5.0941 0.3808,-0.5021 0.7151,-1.0296 0.9974,-1.5803 z m 121.6287,15.2524 c 4.2749,-3.0252 8.278,-6.409 11.9632,-10.1095 8.8389,-8.8755 15.854,-19.5667 20.4401,-31.4631 l 2.1154,-0.5432 c -4.6613,12.6058 -11.9843,23.9231 -21.2896,33.267 -3.8374,3.8532 -8.0125,7.3697 -12.4759,10.5039 z m 35.5494,-51.3609 c 1.9149,-7.3772 2.9279,-15.117 2.9114,-23.0954 -0.0195,-9.4478 -1.4798,-18.556 -4.1718,-27.1174 0.5501,-0.2564 1.0885,-0.5295 1.6143,-0.8188 2.802,8.8117 4.3241,18.195 4.3442,27.9325 0.0161,7.791 -0.931,15.3589 -2.726,22.5926 z M 282.962,227.9411 c -4.6653,-3.2438 -9.0311,-6.8885 -13.0455,-10.8864 -1.6571,-1.6502 -3.2541,-3.3607 -4.7881,-5.1274 0.3891,-0.2863 0.7583,-0.5887 1.1059,-0.9059 1.5031,1.7296 3.0678,3.4044 4.6907,5.0206 3.8848,3.8687 8.1038,7.4015 12.608,10.5543 z m -32.1902,-37.989 c -5.8754,-12.4179 -9.1751,-26.2946 -9.2053,-40.9423 -0.055,-26.5959 10.6755,-50.6963 28.0686,-68.1614 5.012,-5.0328 10.5783,-9.5132 16.5982,-13.345 l 0.4883,1.1367 0.0832,0.1937 c -5.8559,3.7475 -11.2734,8.1193 -16.157,13.0231 -17.135,17.2059 -27.7061,40.9487 -27.652,67.15 0.0303,14.6602 3.3847,28.5365 9.3471,40.9184 -0.5297,-0.01 -1.0536,-5e-4 -1.5711,0.0268 z"
       style="fill:#1b1918;fill-rule:evenodd"
       id="path2" />
  </g>
</svg>
